<?xml version="1.0" encoding="UTF-8"?>
<svg xmlns="http://www.w3.org/2000/svg" xml:space="preserve" width="1920px" height="1080px" version="1.0" style="shape-rendering:geometricPrecision; text-rendering:geometricPrecision; image-rendering:optimizeQuality; fill-rule:evenodd; clip-rule:evenodd"
viewBox="0 0 1920 1080">
 <defs>
  <style>
    .fil0 {fill:black}
  </style>
 </defs>
 <g id="Capa_x0020_1">
  <metadata id="CorelCorpID_0Corel-Layer"/>
  <g id="_2902489751872">
   <path class="fil0" d="M1825 707.12l-1.84 0 0 20.2 -1.83 0 0 20.2 -1.84 0 0 16.53 -1.84 0 0 16.53 -1.83 0 0 31.22 -1.84 0 0 11.02 -1.84 0 0 14.69 -1.83 0 0 3.68 -1.84 0 0 18.36 -1.84 0 0 7.35 -1.83 0 0 5.51 -1.84 0 0 9.18 -1.84 0 0 7.35 -1.83 0 0 5.51 -1.84 0 0 7.34 -1.83 0 0 3.67 -1.84 0 0 7.35 -1.84 0 0 7.35 -1.83 0 0 5.51 -1.84 0 0 5.51 -1.84 0 0 3.67 -1.83 0 0 3.67 -1.84 0 0 3.68 -1.84 0 0 3.67 -1.83 0 0 5.51 -1.84 0 0 3.67 -3.67 0 0 -3.67 -1.84 0 0 -1.84 -1.84 0 0 -5.51 -1.83 0 0 -3.67 -1.84 0 0 -1.84 -1.84 0 0 -5.51 -1.83 0 0 -7.34 -1.84 0 0 -1.84 -1.84 0 0 -5.51 -1.83 0 0 -5.51 -1.84 0 0 -7.35 -1.84 0 0 -7.34 -1.83 0 0 -3.67 -1.84 0 0 -11.02 -1.84 0 0 -3.68 -1.83 0 0 -9.18 -1.84 0 0 -7.35 -1.84 0 0 -14.69 -1.83 0 0 -9.18 -1.84 0 0 -16.53 -1.83 0 0 -1.83 -1.84 0 0 -20.21 -1.83 0 0 -3.67 -1.84 0 0 -12.85 -1.84 0 0 -12.86 -1.83 0 0 -33.06 -1.84 0 0 -16.52 -1.84 0 0 -172.64 1.84 0 0 -27.54 1.84 0 0 -29.39 1.83 0 0 -18.37 1.84 0 0 -5.51 1.84 0 0 -5.5 1.83 0 0 -25.72 1.84 0 0 -3.67 1.83 0 0 -12.86 1.84 0 0 -12.85 1.83 0 0 -11.02 1.84 0 0 -7.34 1.84 0 0 -5.51 1.83 0 0 -9.19 1.84 0 0 -7.34 1.84 0 0 -11.02 1.83 0 0 -3.67 1.84 0 0 -11.02 1.84 0 0 -3.67 1.83 0 0 -5.51 1.84 0 0 -7.35 1.84 0 0 -9.18 1.83 0 0 -3.68 1.84 0 0 -7.34 1.84 0 0 -1.84 1.83 0 0 -12.85 1.84 0 0 -1.84 1.84 0 0 -3.67 3.67 0 0 9.18 1.84 0 0 1.83 1.83 0 0 7.35 1.84 0 0 3.67 1.84 0 0 7.35 1.83 0 0 5.51 1.84 0 0 9.18 1.84 0 0 7.35 1.83 0 0 5.51 1.84 0 0 3.67 1.84 0 0 9.18 1.83 0 0 5.51 1.84 0 0 9.18 1.83 0 0 9.19 1.84 0 0 7.34 1.84 0 0 14.7 1.83 0 0 3.67 1.84 0 0 18.36 1.84 0 0 1.84 1.83 0 0 20.2 1.84 0 0 1.84 1.84 0 0 20.2 1.83 0 0 12.85 1.84 0 0 23.88 1.84 0 0 23.88 1.83 0 0 16.52 1.84 0 0 31.22 1.84 0 0 106.52 -1.84 0 0 25.71zm-205.69 -637.27l-9.18 0 0 1.84 -7.35 0 0 1.84 -1.83 0 0 1.83 -5.51 0 0 1.84 -3.68 0 0 1.84 -5.51 0 0 1.83 -3.67 0 0 1.84 -1.84 0 0 1.84 -3.67 0 0 1.83 -3.67 0 0 1.84 -1.84 0 0 1.84 -3.67 0 0 1.83 -1.84 0 0 1.84 -3.67 0 0 1.84 -1.84 0 0 1.83 -1.84 0 0 1.84 -1.83 0 0 1.83 -3.67 0 0 1.84 -1.84 0 0 1.84 -1.84 0 0 1.83 -1.83 0 0 1.84 -1.84 0 0 1.83 -1.84 0 0 1.84 -1.83 0 0 1.84 -1.84 0 0 1.83 -1.84 0 0 1.84 -1.83 0 0 1.84 -1.84 0 0 1.83 -1.84 0 0 1.84 -1.83 0 0 1.84 -1.84 0 0 3.67 -1.84 0 0 1.84 -1.83 0 0 1.83 -1.84 0 0 1.84 -1.84 0 0 3.67 -1.83 0 0 1.84 -1.84 0 0 1.84 -1.84 0 0 3.67 -1.83 0 0 1.84 -1.84 0 0 1.83 -1.83 0 0 7.35 1.83 0 0 3.67 1.84 0 0 1.84 1.83 0 0 5.51 1.84 0 0 1.83 1.84 0 0 1.84 1.83 0 0 3.67 1.84 0 0 1.84 1.84 0 0 3.67 1.83 0 0 3.68 1.84 0 0 3.67 1.84 0 0 3.67 1.83 0 0 3.68 1.84 0 0 5.51 1.84 0 0 1.83 1.83 0 0 -1.83 1.84 0 0 -3.68 1.84 0 0 -3.67 1.83 0 0 -1.84 1.84 0 0 -3.67 1.84 0 0 -3.67 1.83 0 0 -1.84 1.84 0 0 -1.84 1.84 0 0 -3.67 1.83 0 0 -1.84 1.84 0 0 -1.83 1.83 0 0 -3.68 1.84 0 0 -1.83 1.84 0 0 -1.84 1.83 0 0 -3.67 1.84 0 0 -3.67 3.67 0 0 -1.84 1.84 0 0 -1.84 1.84 0 0 -1.83 1.83 0 0 -1.84 1.84 0 0 -1.84 1.84 0 0 -1.83 1.83 0 0 -1.84 1.84 0 0 -1.84 1.84 0 0 -1.83 1.83 0 0 -1.84 1.84 0 0 -1.84 1.84 0 0 -1.83 1.83 0 0 -1.84 3.68 0 0 -1.84 1.83 0 0 -1.83 3.68 0 0 -1.84 1.83 0 0 -1.84 3.67 0 0 -1.83 5.51 0 0 -3.68 7.35 0 0 -1.83 9.18 0 0 -1.84 25.71 0 0 1.84 3.68 0 0 1.83 3.67 0 0 1.84 3.67 0 0 1.84 3.67 0 0 1.83 5.51 0 0 1.84 1.84 0 0 1.84 3.67 0 0 1.83 1.84 0 0 1.84 3.67 0 0 1.84 1.84 0 0 1.83 1.84 0 0 1.84 1.83 0 0 1.84 1.84 0 0 1.83 3.67 0 0 1.84 1.84 0 0 1.84 1.84 0 0 1.83 1.83 0 0 1.84 1.84 0 0 3.67 1.84 0 0 1.84 1.83 0 0 1.84 1.84 0 0 1.83 1.84 0 0 1.84 1.83 0 0 1.83 1.84 0 0 3.68 1.84 0 0 1.83 1.83 0 0 1.84 1.84 0 0 3.67 1.84 0 0 1.84 1.83 0 0 3.67 1.84 0 0 1.84 1.84 0 0 3.67 1.83 0 0 1.84 1.84 0 0 3.67 1.84 0 0 1.84 1.83 0 0 3.67 1.84 0 0 3.68 1.83 0 0 1.83 1.84 0 0 3.68 1.83 0 0 3.67 1.84 0 0 3.67 1.84 0 0 9.18 -1.84 0 0 3.67 -1.84 0 0 3.68 -1.83 0 0 5.51 -1.84 0 0 3.67 -1.83 0 0 5.51 -1.84 0 0 5.51 -1.83 0 0 1.84 -1.84 0 0 5.51 -1.84 0 0 7.34 -1.83 0 0 3.68 -1.84 0 0 5.51 -1.84 0 0 1.83 -1.83 0 0 11.02 -1.84 0 0 7.35 -1.84 0 0 5.51 -1.83 0 0 7.34 -1.84 0 0 7.35 -1.84 0 0 5.51 -1.83 0 0 7.35 -1.84 0 0 5.51 -1.84 0 0 3.67 -1.83 0 0 9.18 -1.84 0 0 11.02 -1.84 0 0 5.51 -1.83 0 0 9.18 -1.84 0 0 9.18 -1.84 0 0 11.02 -1.83 0 0 5.51 -1.84 0 0 9.18 -1.84 0 0 12.86 -1.83 0 0 12.85 -1.84 0 0 11.02 -1.84 0 0 7.35 -1.83 0 0 18.36 -1.84 0 0 7.35 -1.84 0 0 23.88 -1.83 0 0 12.85 -1.84 0 0 22.04 -1.84 0 0 33.06 -1.83 0 0 99.17 1.83 0 0 51.42 1.84 0 0 11.02 1.84 0 0 38.57 1.83 0 0 18.36 1.84 0 0 3.67 1.84 0 0 22.04 1.83 0 0 9.19 1.84 0 0 9.18 1.84 0 0 11.02 1.83 0 0 11.01 1.84 0 0 9.19 1.84 0 0 9.18 1.83 0 0 9.18 1.84 0 0 9.19 1.84 0 0 7.34 1.83 0 0 11.02 1.84 0 0 7.35 3.67 0 0 5.51 1.84 0 0 7.34 1.84 0 0 5.51 1.83 0 0 5.51 1.84 0 0 5.51 1.84 0 0 3.68 1.83 0 0 11.01 1.84 0 0 3.68 1.84 0 0 3.67 1.83 0 0 5.51 1.84 0 0 3.67 1.84 0 0 3.67 1.83 0 0 1.84 1.84 0 0 1.84 1.84 0 0 3.67 1.83 0 0 1.84 1.84 0 0 3.67 1.83 0 0 1.84 1.84 0 0 1.83 1.83 0 0 1.84 1.84 0 0 1.84 1.84 0 0 1.83 1.83 0 0 1.84 1.84 0 0 1.84 1.84 0 0 1.83 3.67 0 0 1.84 1.84 0 0 1.84 11.02 0 0 1.83 16.53 0 0 -1.83 7.34 0 0 -1.84 1.84 0 0 -1.84 3.67 0 0 -1.83 1.84 0 0 -1.84 3.67 0 0 -1.84 1.84 0 0 -1.83 1.83 0 0 -1.84 1.84 0 0 -1.84 1.84 0 0 -3.67 1.83 0 0 -1.84 1.84 0 0 -1.83 1.84 0 0 -3.68 1.83 0 0 -1.83 1.84 0 0 -5.51 1.84 0 0 -3.68 1.83 0 0 -1.83 1.84 0 0 -1.84 1.84 0 0 -5.51 1.83 0 0 -5.51 1.84 0 0 -1.83 1.84 0 0 -7.35 1.83 0 0 -3.67 1.84 0 0 -7.35 1.84 0 0 -9.18 1.83 0 0 -1.84 1.84 0 0 -9.18 1.84 0 0 -7.35 1.83 0 0 -3.67 1.84 0 0 -5.51 1.84 0 0 -9.18 1.83 0 0 -7.35 1.84 0 0 -9.18 1.83 0 0 -9.18 1.84 0 0 -9.19 1.84 0 0 -9.18 1.83 0 0 -11.02 1.84 0 0 -20.2 1.83 0 0 -1.83 1.84 0 0 -22.04 1.84 0 0 -3.68 1.83 0 0 -9.18 1.84 0 0 -27.55 1.84 0 0 -18.36 1.83 0 0 -22.04 1.84 0 0 -163.45 -1.84 0 0 -25.71 -1.83 0 0 -18.36 -1.84 0 0 -12.86 -1.84 0 0 -14.69 -1.83 0 0 -16.53 -1.84 0 0 -11.02 -1.84 0 0 -11.02 -1.83 0 0 -14.69 -1.84 0 0 -9.19 -1.83 0 0 -12.85 -1.84 0 0 -9.18 -1.84 0 0 -9.18 -1.83 0 0 -11.02 -1.84 0 0 -7.35 -1.83 0 0 -7.35 -1.84 0 0 -7.34 -1.84 0 0 -7.35 -1.83 0 0 -7.34 -1.84 0 0 -9.18 -1.84 0 0 -7.35 -1.83 0 0 -7.35 -1.84 0 0 -1.83 -1.84 0 0 -9.19 -1.83 0 0 -5.51 -1.84 0 0 -5.5 -1.84 0 0 -3.68 -1.83 0 0 -9.18 -1.84 0 0 -5.51 -1.84 0 0 -3.67 -1.83 0 0 -7.35 -1.84 0 0 -3.67 -1.84 0 0 -7.35 -1.83 0 0 -3.67 -1.84 0 0 -5.51 -1.84 0 0 -1.84 -1.83 0 0 -7.35 -1.84 0 0 -1.83 -1.84 0 0 -5.51 -1.83 0 0 -3.67 -1.84 0 0 -5.51 -1.84 0 0 -1.84 -1.83 0 0 -3.67 -1.84 0 0 -3.67 -1.83 0 0 -3.68 -1.84 0 0 -5.51 -1.84 0 0 -3.67 -1.83 0 0 -1.84 -1.84 0 0 -3.67 -1.84 0 0 -5.51 -1.83 0 0 -3.67 -1.84 0 0 -1.84 -1.84 0 0 -1.84 -1.83 0 0 -1.83 -1.84 0 0 -5.51 -1.84 0 0 -5.51 -1.83 0 0 -1.84 -1.84 0 0 -3.67 -1.84 0 0 -1.84 -1.83 0 0 -1.83 -1.84 0 0 -1.84 -1.84 0 0 -3.67 -1.83 0 0 -3.68 -1.84 0 0 -1.83 -1.84 0 0 -1.84 -1.83 0 0 -1.84 -1.84 0 0 -3.67 -1.84 0 0 -1.84 -1.83 0 0 -1.83 -1.84 0 0 -1.84 -1.84 0 0 -3.67 -1.83 0 0 -1.84 -1.84 0 0 -1.84 -1.84 0 0 -1.83 -1.83 0 0 -1.84 -1.84 0 0 -1.84 -1.83 0 0 -1.83 -1.84 0 0 -1.84 -1.83 0 0 -1.84 -1.84 0 0 -1.83 -1.84 0 0 -1.84 -1.83 0 0 -1.83 -1.84 0 0 -1.84 -1.84 0 0 -1.84 -1.83 0 0 -1.83 -1.84 0 0 -1.84 -3.67 0 0 -1.83 -1.84 0 0 -1.84 -3.67 0 0 -1.84 -1.84 0 0 -1.83 -3.67 0 0 -1.84 -1.84 0 0 -1.84 -3.67 0 0 -1.83 -3.68 0 0 -1.84 -3.67 0 0 -1.84 -1.84 0 0 -1.83 -5.51 0 0 -1.84 -1.83 0 0 -1.84 -5.51 0 0 -1.83 -7.35 0 0 -1.84 -5.51 0 0 -1.84 -7.34 0 0 -1.83 -38.57 0 0 1.83z"/>
   <path class="fil0" d="M1007.75 705.29l-1.84 0 0 44.07 -1.83 0 0 25.71 -1.84 0 0 14.69 -1.84 0 0 18.37 -1.83 0 0 1.84 -1.84 0 0 20.2 -1.83 0 0 7.34 -1.84 0 0 11.02 -1.84 0 0 11.02 -1.83 0 0 7.35 -1.84 0 0 11.02 -1.84 0 0 7.34 -1.83 0 0 7.35 -1.84 0 0 3.67 -1.84 0 0 9.18 -1.83 0 0 3.68 -1.84 0 0 5.51 -1.84 0 0 7.34 -1.83 0 0 3.68 -1.84 0 0 7.34 -1.84 0 0 1.84 -1.83 0 0 7.35 -1.84 0 0 1.83 -1.84 0 0 7.35 -1.83 0 0 5.51 -5.51 0 0 -5.51 -1.84 0 0 -1.84 -1.84 0 0 -3.67 -1.83 0 0 -7.35 -1.84 0 0 -1.83 -1.84 0 0 -7.35 -1.83 0 0 -3.67 -1.84 0 0 -5.51 -1.83 0 0 -7.35 -1.84 0 0 -3.67 -1.84 0 0 -5.51 -1.83 0 0 -5.51 -1.84 0 0 -11.02 -1.83 0 0 -3.67 -1.84 0 0 -11.02 -1.84 0 0 -7.35 -1.83 0 0 -11.02 -1.84 0 0 -3.67 -1.84 0 0 -7.35 -1.83 0 0 -12.85 -1.84 0 0 -16.53 -1.84 0 0 -12.86 -1.83 0 0 -18.36 -1.84 0 0 -34.9 -1.84 0 0 -12.85 -1.83 0 0 -31.22 -1.84 0 0 -145.09 1.84 0 0 -47.74 1.83 0 0 -23.88 1.84 0 0 -11.02 1.84 0 0 -20.2 1.83 0 0 -3.67 1.84 0 0 -20.21 1.84 0 0 -1.83 1.83 0 0 -14.7 1.84 0 0 -9.18 1.84 0 0 -12.85 1.83 0 0 -1.84 1.84 0 0 -14.69 1.84 0 0 -5.51 1.83 0 0 -11.02 1.84 0 0 -3.67 1.83 0 0 -9.18 1.84 0 0 -9.18 1.84 0 0 -5.51 1.83 0 0 -3.68 1.84 0 0 -9.18 1.83 0 0 -5.51 1.84 0 0 -7.35 1.84 0 0 -3.67 1.83 0 0 -5.51 1.84 0 0 -12.85 1.84 0 0 -1.84 5.51 0 0 5.51 1.83 0 0 12.85 1.84 0 0 7.35 1.84 0 0 1.84 1.83 0 0 7.34 1.84 0 0 5.51 1.84 0 0 7.35 1.83 0 0 5.51 1.84 0 0 9.18 1.84 0 0 9.18 1.83 0 0 3.67 1.84 0 0 9.19 1.84 0 0 9.18 1.83 0 0 5.51 1.84 0 0 11.02 1.84 0 0 9.18 1.83 0 0 9.18 1.84 0 0 7.35 1.84 0 0 12.85 1.83 0 0 9.19 1.84 0 0 11.02 1.83 0 0 27.54 3.68 0 0 22.04 1.83 0 0 9.19 1.84 0 0 38.56 1.84 0 0 152.43 -1.84 0 0 3.68zm-200.18 -635.44l-11.02 0 0 1.84 -9.18 0 0 1.84 -1.84 0 0 1.83 -7.34 0 0 1.84 -3.68 0 0 1.84 -3.67 0 0 1.83 -3.67 0 0 1.84 -3.68 0 0 1.84 -1.83 0 0 1.83 -3.68 0 0 1.84 -3.67 0 0 1.84 -1.83 0 0 1.83 -1.84 0 0 1.84 -3.67 0 0 1.84 -1.84 0 0 1.83 -3.67 0 0 1.84 -1.84 0 0 1.83 -1.84 0 0 1.84 -1.83 0 0 1.84 -1.84 0 0 1.83 -1.84 0 0 1.84 -1.83 0 0 1.83 -3.68 0 0 1.84 -1.83 0 0 1.84 -1.84 0 0 1.83 -1.84 0 0 1.84 -1.83 0 0 3.67 -1.84 0 0 1.84 -1.84 0 0 1.84 -1.83 0 0 1.83 -1.84 0 0 1.84 -1.84 0 0 1.84 -1.83 0 0 3.67 -1.84 0 0 1.84 -1.84 0 0 3.67 -1.83 0 0 1.84 -1.84 0 0 1.83 -1.84 0 0 3.68 -1.83 0 0 1.83 -1.84 0 0 7.35 1.84 0 0 3.67 1.83 0 0 1.84 1.84 0 0 1.83 1.84 0 0 5.51 1.83 0 0 1.84 1.84 0 0 3.67 1.84 0 0 5.51 1.83 0 0 3.68 1.84 0 0 3.67 1.84 0 0 1.84 1.83 0 0 3.67 1.84 0 0 3.67 1.84 0 0 3.68 5.51 0 0 -5.51 1.83 0 0 -1.84 1.84 0 0 -3.67 1.84 0 0 -3.68 1.83 0 0 -1.83 1.84 0 0 -3.68 1.84 0 0 -1.83 1.83 0 0 -3.68 1.84 0 0 -1.83 1.84 0 0 -1.84 1.83 0 0 -1.84 1.84 0 0 -3.67 1.84 0 0 -1.84 1.83 0 0 -1.83 1.84 0 0 -1.84 1.84 0 0 -1.83 1.83 0 0 -1.84 1.84 0 0 -3.67 1.83 0 0 -1.84 1.84 0 0 -1.84 1.84 0 0 -1.83 1.83 0 0 -1.84 1.84 0 0 -1.84 1.84 0 0 -1.83 1.83 0 0 -1.84 3.68 0 0 -1.84 1.83 0 0 -1.83 1.84 0 0 -1.84 1.84 0 0 -1.84 3.67 0 0 -1.83 1.84 0 0 -1.84 3.67 0 0 -1.84 3.67 0 0 -1.83 3.68 0 0 -1.84 5.51 0 0 -1.84 1.83 0 0 -1.83 5.51 0 0 -1.84 27.55 0 0 1.84 5.51 0 0 1.83 5.51 0 0 1.84 3.67 0 0 1.84 5.51 0 0 1.83 3.67 0 0 1.84 1.84 0 0 1.84 3.67 0 0 1.83 1.84 0 0 1.84 1.84 0 0 1.84 3.67 0 0 1.83 1.83 0 0 1.84 1.84 0 0 1.84 1.84 0 0 1.83 1.83 0 0 1.84 1.84 0 0 1.84 1.84 0 0 1.83 1.83 0 0 1.84 1.84 0 0 1.84 1.84 0 0 1.83 1.83 0 0 1.84 1.84 0 0 1.84 1.84 0 0 1.83 1.83 0 0 1.84 1.84 0 0 3.67 1.84 0 0 1.84 1.83 0 0 1.83 1.84 0 0 3.68 1.84 0 0 1.83 1.83 0 0 3.68 1.84 0 0 1.83 1.84 0 0 3.68 1.83 0 0 1.83 1.84 0 0 3.68 1.84 0 0 1.83 1.83 0 0 3.68 1.84 0 0 3.67 1.84 0 0 1.84 1.83 0 0 3.67 1.84 0 0 3.67 1.84 0 0 3.68 1.83 0 0 1.83 1.84 0 0 7.35 -1.84 0 0 5.5 -1.83 0 0 3.68 -1.84 0 0 3.67 -1.84 0 0 3.67 -1.83 0 0 5.51 -1.84 0 0 5.51 -1.84 0 0 5.51 -1.83 0 0 1.84 -1.84 0 0 7.35 -1.84 0 0 5.51 -1.83 0 0 7.34 -1.84 0 0 1.84 -1.84 0 0 9.18 -1.83 0 0 5.51 -1.84 0 0 1.84 -1.84 0 0 11.02 -1.83 0 0 1.83 -1.84 0 0 9.19 -1.84 0 0 7.34 -1.83 0 0 3.68 -1.84 0 0 11.02 -1.84 0 0 5.5 -1.83 0 0 3.68 -1.84 0 0 9.18 -1.84 0 0 11.02 -1.83 0 0 7.34 -1.84 0 0 11.02 -1.84 0 0 7.35 -1.83 0 0 7.35 -1.84 0 0 12.85 -1.84 0 0 12.85 -1.83 0 0 5.51 -1.84 0 0 22.04 -1.83 0 0 3.68 -1.84 0 0 20.2 -1.84 0 0 7.34 -1.83 0 0 29.39 -1.84 0 0 7.35 -1.84 0 0 51.42 -1.83 0 0 117.53 1.83 0 0 23.88 1.84 0 0 25.71 1.84 0 0 36.73 1.83 0 0 3.67 1.84 0 0 20.2 1.84 0 0 14.7 1.83 0 0 16.53 1.84 0 0 1.83 1.83 0 0 16.53 1.84 0 0 9.18 1.84 0 0 9.18 1.83 0 0 5.51 1.84 0 0 11.02 1.84 0 0 9.19 1.83 0 0 7.34 1.84 0 0 7.35 1.84 0 0 5.51 1.83 0 0 5.51 1.84 0 0 7.34 1.84 0 0 3.68 1.83 0 0 3.67 1.84 0 0 9.18 1.84 0 0 1.84 1.83 0 0 5.51 1.84 0 0 5.51 1.84 0 0 7.34 1.83 0 0 5.51 1.84 0 0 1.84 1.84 0 0 3.67 1.83 0 0 1.84 1.84 0 0 3.67 1.84 0 0 3.67 1.83 0 0 3.68 1.84 0 0 1.83 1.84 0 0 1.84 1.83 0 0 1.84 1.84 0 0 3.67 1.84 0 0 1.84 1.83 0 0 1.83 3.68 0 0 1.84 1.83 0 0 1.84 1.84 0 0 1.83 1.83 0 0 1.84 3.68 0 0 1.84 5.5 0 0 1.83 22.04 0 0 -1.83 3.68 0 0 -1.84 5.51 0 0 -1.84 1.83 0 0 -1.83 3.68 0 0 -1.84 1.83 0 0 -1.84 1.84 0 0 -1.83 1.84 0 0 -1.84 1.83 0 0 -1.84 1.84 0 0 -1.83 1.84 0 0 -3.68 1.83 0 0 -1.83 1.84 0 0 -1.84 1.83 0 0 -3.67 1.84 0 0 -1.84 1.84 0 0 -3.67 1.83 0 0 -5.51 1.84 0 0 -3.67 1.84 0 0 -3.68 1.83 0 0 -3.67 1.84 0 0 -5.51 1.84 0 0 -1.83 1.83 0 0 -7.35 1.84 0 0 -9.18 1.84 0 0 -1.84 1.83 0 0 -3.67 1.84 0 0 -5.51 1.84 0 0 -11.02 1.83 0 0 -1.84 1.84 0 0 -9.18 1.84 0 0 -3.67 1.83 0 0 -11.02 1.84 0 0 -7.35 1.84 0 0 -9.18 1.83 0 0 -12.86 1.84 0 0 -7.35 1.84 0 0 -14.69 1.83 0 0 -7.34 1.84 0 0 -14.69 1.84 0 0 -7.35 1.83 0 0 -14.69 1.84 0 0 -16.53 1.84 0 0 -20.2 1.83 0 0 -16.53 1.83 0 0 -34.89 1.84 0 0 -22.04 1.84 0 0 -102.85 -1.84 0 0 -23.87 -1.84 0 0 -38.57 -1.83 0 0 -16.53 -1.83 0 0 -16.53 -1.84 0 0 -12.85 -1.84 0 0 -18.37 -1.83 0 0 -11.02 -1.84 0 0 -12.85 -1.84 0 0 -11.02 -1.83 0 0 -9.18 -1.84 0 0 -9.18 -1.84 0 0 -9.19 -1.83 0 0 -12.85 -1.84 0 0 -3.68 -1.84 0 0 -9.18 -1.83 0 0 -9.18 -1.84 0 0 -5.51 -1.84 0 0 -7.35 -1.83 0 0 -14.69 -1.84 0 0 -3.67 -1.84 0 0 -7.35 -1.83 0 0 -7.34 -1.84 0 0 -3.68 -1.84 0 0 -11.02 -1.83 0 0 -5.5 -1.84 0 0 -3.68 -1.84 0 0 -3.67 -1.83 0 0 -7.35 -1.84 0 0 -7.34 -1.84 0 0 -3.68 -1.83 0 0 -9.18 -1.84 0 0 -1.84 -1.84 0 0 -5.51 -1.83 0 0 -3.67 -1.84 0 0 -3.67 -1.83 0 0 -5.51 -1.84 0 0 -3.68 -1.84 0 0 -3.67 -1.83 0 0 -3.67 -1.84 0 0 -5.51 -1.84 0 0 -3.67 -1.83 0 0 -3.67 -1.84 0 0 -3.68 -1.84 0 0 -5.51 -1.83 0 0 -1.83 -1.84 0 0 -3.68 -1.84 0 0 -3.67 -1.83 0 0 -5.51 -1.84 0 0 -1.84 -1.84 0 0 -3.67 -1.83 0 0 -5.51 -1.84 0 0 -1.84 -1.84 0 0 -5.51 -1.83 0 0 -1.83 -1.84 0 0 -3.68 -1.84 0 0 -1.83 -1.83 0 0 -3.67 -1.84 0 0 -1.84 -1.84 0 0 -1.84 -1.83 0 0 -3.67 -1.84 0 0 -1.84 -1.84 0 0 -3.67 -1.83 0 0 -1.84 -1.84 0 0 -1.83 -1.83 0 0 -3.68 -1.84 0 0 -1.83 -1.84 0 0 -1.84 -1.83 0 0 -1.84 -1.84 0 0 -3.67 -1.83 0 0 -1.84 -1.84 0 0 -1.83 -1.84 0 0 -1.84 -1.83 0 0 -3.67 -1.84 0 0 -1.84 -1.84 0 0 -1.84 -1.83 0 0 -1.83 -1.84 0 0 -1.84 -1.84 0 0 -1.84 -1.83 0 0 -1.83 -1.84 0 0 -1.84 -1.84 0 0 -1.83 -1.83 0 0 -1.84 -3.68 0 0 -1.84 -1.83 0 0 -1.83 -1.84 0 0 -1.84 -1.84 0 0 -1.83 -3.67 0 0 -1.84 -1.84 0 0 -1.84 -3.67 0 0 -1.83 -1.84 0 0 -1.84 -3.67 0 0 -1.84 -1.84 0 0 -1.83 -3.67 0 0 -1.84 -3.67 0 0 -1.84 -3.68 0 0 -1.83 -3.67 0 0 -1.84 -3.67 0 0 -1.84 -3.67 0 0 -1.83 -7.35 0 0 -1.84 -7.35 0 0 -1.84 -12.85 0 0 -1.83 -27.55 0 0 1.83z"/>
   <path class="fil0" d="M410.88 290.24l0 -5.51 7.35 0 0 9.18 1.84 0 0 7.34 1.83 0 0 7.35 1.84 0 0 3.67 1.84 0 0 5.51 1.83 0 0 5.51 1.84 0 0 9.19 1.84 0 0 7.34 1.83 0 0 3.67 1.84 0 0 9.19 1.84 0 0 5.5 1.83 0 0 11.02 1.84 0 0 5.51 1.83 0 0 14.7 1.84 0 0 1.83 1.83 0 0 7.35 1.84 0 0 12.85 1.84 0 0 14.69 1.83 0 0 3.68 1.84 0 0 16.53 1.84 0 0 25.71 1.83 0 0 1.83 1.84 0 0 33.06 1.84 0 0 16.53 1.83 0 0 18.36 1.84 0 0 29.39 1.84 0 0 113.86 -1.84 0 0 27.55 -1.84 0 0 40.4 -1.83 0 0 23.88 -1.84 0 0 12.85 -1.84 0 0 16.53 -1.83 0 0 11.02 -1.84 0 0 12.86 -1.84 0 0 11.02 -1.83 0 0 11.01 -1.84 0 0 5.51 -1.84 0 0 12.86 -1.83 0 0 3.67 -1.84 0 0 11.02 -1.83 0 0 7.35 -1.84 0 0 5.51 -1.83 0 0 7.34 -1.84 0 0 3.68 -1.84 0 0 7.34 -1.83 0 0 3.68 -1.84 0 0 7.34 -1.84 0 0 3.68 -1.83 0 0 5.51 -1.84 0 0 3.67 -1.84 0 0 3.67 -1.83 0 0 7.35 -1.84 0 0 3.67 -5.51 0 0 -3.67 -1.84 0 0 -3.67 -1.83 0 0 -5.51 -1.84 0 0 -1.84 -1.84 0 0 -5.51 -1.83 0 0 -5.51 -1.84 0 0 -1.84 -1.84 0 0 -9.18 -1.83 0 0 -1.84 -1.84 0 0 -9.18 -1.84 0 0 -3.67 -1.83 0 0 -7.35 -1.84 0 0 -3.67 -1.84 0 0 -7.35 -1.83 0 0 -7.34 -1.84 0 0 -12.86 -1.83 0 0 -9.18 -1.84 0 0 -5.51 -1.84 0 0 -11.02 -1.83 0 0 -12.85 -1.84 0 0 -12.86 -1.84 0 0 -11.02 -1.83 0 0 -20.2 -1.84 0 0 -9.18 -1.83 0 0 -27.55 -1.84 0 0 -1.84 -1.84 0 0 -38.56 -1.83 0 0 -143.25 1.83 0 0 -45.91 1.84 0 0 -9.19 1.84 0 0 -16.53 1.83 0 0 -11.02 1.84 0 0 -25.71 1.83 0 0 -3.67 1.84 0 0 -18.37 1.84 0 0 -3.67 1.83 0 0 -16.53 1.84 0 0 -7.34 1.84 0 0 -9.18 1.83 0 0 -11.02 1.84 0 0 -5.51 1.83 0 0 -11.02 1.84 0 0 -9.19 1.84 0 0 -7.34 1.83 0 0 -3.67 1.84 0 0 -7.35 1.84 0 0 -9.18 1.83 0 0 -5.51 1.84 0 0 -5.51 1.84 0 0 -7.35 1.83 0 0 -1.83 1.84 0 0 -7.35 1.84 0 0 -12.85 1.83 0zm-148.76 -220.39l-11.01 0 0 1.84 -7.35 0 0 1.84 -1.83 0 0 1.83 -7.35 0 0 1.84 -3.67 0 0 1.84 -3.68 0 0 1.83 -3.67 0 0 1.84 -3.67 0 0 1.84 -3.68 0 0 1.83 -1.83 0 0 1.84 -3.68 0 0 1.84 -1.83 0 0 1.83 -3.68 0 0 1.84 -1.83 0 0 1.84 -3.68 0 0 1.83 -1.83 0 0 1.84 -1.84 0 0 1.83 -1.84 0 0 1.84 -1.83 0 0 1.84 -1.84 0 0 1.83 -3.67 0 0 1.84 -1.84 0 0 1.83 -1.83 0 0 1.84 -1.84 0 0 1.84 -1.84 0 0 1.83 -1.83 0 0 1.84 -1.84 0 0 1.84 -1.84 0 0 1.83 -1.83 0 0 3.68 -1.84 0 0 1.83 -1.84 0 0 1.84 -1.83 0 0 1.84 -1.84 0 0 3.67 -1.84 0 0 1.84 -1.83 0 0 1.83 -1.84 0 0 1.84 -1.84 0 0 3.67 -1.83 0 0 1.84 -1.84 0 0 1.84 -1.84 0 0 11.02 1.84 0 0 1.83 1.84 0 0 3.67 1.83 0 0 3.68 1.84 0 0 1.83 1.84 0 0 3.68 1.83 0 0 3.67 1.84 0 0 3.67 1.84 0 0 3.68 1.83 0 0 3.67 1.84 0 0 3.67 1.84 0 0 3.68 1.83 0 0 3.67 1.84 0 0 3.67 3.67 0 0 -5.51 1.84 0 0 -1.83 1.84 0 0 -3.68 1.83 0 0 -3.67 1.84 0 0 -1.84 1.84 0 0 -1.83 1.83 0 0 -3.68 1.84 0 0 -1.83 1.83 0 0 -3.68 1.84 0 0 -1.83 1.84 0 0 -1.84 1.83 0 0 -3.67 1.84 0 0 -1.84 1.84 0 0 -1.84 1.83 0 0 -1.83 1.84 0 0 -1.84 1.84 0 0 -3.67 1.83 0 0 -1.84 1.84 0 0 -1.83 1.84 0 0 -1.84 1.83 0 0 -1.84 1.84 0 0 -1.83 1.84 0 0 -1.84 1.83 0 0 -1.84 1.84 0 0 -1.83 1.84 0 0 -1.84 1.83 0 0 -1.84 1.84 0 0 -1.83 1.84 0 0 -1.84 3.67 0 0 -1.84 1.84 0 0 -1.83 3.67 0 0 -1.84 3.67 0 0 -1.84 1.84 0 0 -1.83 3.67 0 0 -1.84 1.84 0 0 -1.84 5.5 0 0 -1.83 9.19 0 0 -1.84 25.71 0 0 1.84 5.51 0 0 1.83 3.67 0 0 1.84 5.51 0 0 1.84 5.51 0 0 1.83 1.84 0 0 1.84 3.67 0 0 1.84 1.84 0 0 1.83 3.67 0 0 1.84 1.84 0 0 1.84 1.83 0 0 1.83 3.68 0 0 1.84 1.83 0 0 1.84 1.84 0 0 1.83 1.84 0 0 1.84 1.83 0 0 1.84 1.84 0 0 1.83 1.84 0 0 1.84 1.83 0 0 1.84 1.84 0 0 1.83 1.84 0 0 1.84 1.83 0 0 3.67 1.84 0 0 1.84 1.84 0 0 1.83 1.83 0 0 1.84 1.84 0 0 3.67 1.84 0 0 1.84 1.83 0 0 1.84 1.84 0 0 3.67 1.84 0 0 1.84 1.83 0 0 3.67 1.84 0 0 1.84 1.84 0 0 3.67 1.83 0 0 1.84 1.84 0 0 3.67 1.83 0 0 1.84 1.84 0 0 3.67 1.84 0 0 3.67 1.83 0 0 3.68 1.84 0 0 1.83 1.84 0 0 3.68 1.83 0 0 3.67 1.84 0 0 5.51 -1.84 0 0 3.67 -1.83 0 0 3.67 -1.84 0 0 3.67 -1.84 0 0 5.51 -1.83 0 0 3.68 -1.84 0 0 3.67 -1.84 0 0 3.67 -1.83 0 0 5.51 -1.84 0 0 7.35 -1.83 0 0 5.51 -1.84 0 0 3.67 -1.84 0 0 5.51 -1.83 0 0 3.68 -1.84 0 0 9.18 -1.84 0 0 3.67 -1.83 0 0 3.67 -1.84 0 0 3.68 -1.84 0 0 11.02 -1.83 0 0 5.51 -1.84 0 0 12.85 -1.84 0 0 1.84 -1.83 0 0 9.18 -1.84 0 0 5.51 -1.84 0 0 12.85 -1.83 0 0 9.19 -1.84 0 0 7.34 -1.84 0 0 7.35 -1.83 0 0 11.02 -1.84 0 0 5.51 -1.84 0 0 12.85 -1.83 0 0 7.35 -1.84 0 0 12.85 -1.84 0 0 12.86 -1.83 0 0 11.02 -1.84 0 0 11.02 -1.83 0 0 22.04 -1.84 0 0 12.85 -1.84 0 0 25.72 -1.83 0 0 42.23 -1.84 0 0 22.04 -1.84 0 0 86.32 1.84 0 0 36.73 1.84 0 0 23.87 1.83 0 0 12.86 1.84 0 0 20.2 1.84 0 0 12.86 1.83 0 0 20.2 1.84 0 0 11.02 1.83 0 0 11.02 1.84 0 0 11.01 1.84 0 0 11.02 1.83 0 0 12.86 1.84 0 0 7.34 1.84 0 0 11.02 1.83 0 0 7.35 1.84 0 0 11.02 1.84 0 0 5.51 3.67 0 0 9.18 1.84 0 0 12.86 1.83 0 0 7.34 1.84 0 0 1.84 1.84 0 0 5.51 1.83 0 0 7.35 1.84 0 0 5.51 1.84 0 0 3.67 1.83 0 0 3.67 1.84 0 0 3.67 1.84 0 0 3.68 1.83 0 0 5.5 1.84 0 0 3.68 1.84 0 0 1.83 1.83 0 0 3.68 1.84 0 0 1.83 1.83 0 0 3.68 1.84 0 0 1.83 1.84 0 0 1.84 1.83 0 0 3.67 1.84 0 0 1.84 1.84 0 0 1.84 1.83 0 0 1.83 1.84 0 0 1.84 1.83 0 0 1.84 3.68 0 0 1.83 1.83 0 0 1.84 5.51 0 0 1.84 5.51 0 0 1.83 22.04 0 0 -1.83 3.68 0 0 -1.84 3.67 0 0 -1.84 1.84 0 0 -1.83 3.67 0 0 -1.84 1.83 0 0 -1.84 1.84 0 0 -1.83 1.83 0 0 -1.84 1.84 0 0 -1.84 1.84 0 0 -1.83 1.83 0 0 -3.68 1.84 0 0 -1.83 1.84 0 0 -1.84 1.83 0 0 -3.67 1.84 0 0 -1.84 1.84 0 0 -5.51 1.83 0 0 -3.67 1.84 0 0 -5.51 3.67 0 0 -9.18 1.84 0 0 -3.67 1.84 0 0 -3.68 1.83 0 0 -7.34 1.84 0 0 -3.68 1.84 0 0 -1.83 1.83 0 0 -11.02 1.84 0 0 -1.84 1.84 0 0 -7.35 1.83 0 0 -5.51 1.84 0 0 -9.18 1.84 0 0 -3.67 1.83 0 0 -11.02 1.84 0 0 -3.67 1.84 0 0 -12.86 1.83 0 0 -7.35 1.84 0 0 -12.85 1.84 0 0 -9.18 1.83 0 0 -14.69 1.84 0 0 -14.7 1.84 0 0 -3.67 1.83 0 0 -22.04 1.84 0 0 -7.34 1.83 0 0 -27.55 1.84 0 0 -44.08 1.84 0 0 -20.2 1.83 0 0 -113.86 -1.83 0 0 -23.88 -1.84 0 0 -38.56 -1.84 0 0 -25.72 -1.83 0 0 -7.34 -1.84 0 0 -23.88 -1.83 0 0 -5.51 -1.84 0 0 -12.85 -1.84 0 0 -16.53 -1.83 0 0 -11.02 -1.84 0 0 -3.67 -1.84 0 0 -12.86 -1.83 0 0 -5.51 -1.84 0 0 -11.02 -1.84 0 0 -12.85 -1.83 0 0 -5.51 -1.84 0 0 -9.18 -1.84 0 0 -3.68 -1.83 0 0 -11.01 -1.84 0 0 -3.68 -1.84 0 0 -7.34 -1.83 0 0 -5.51 -1.84 0 0 -11.02 -1.84 0 0 -1.84 -1.83 0 0 -5.51 -1.84 0 0 -5.51 -1.84 0 0 -7.34 -1.83 0 0 -9.19 -1.84 0 0 -3.67 -1.84 0 0 -7.35 -1.83 0 0 -5.51 -1.84 0 0 -5.51 -1.84 0 0 -1.83 -1.83 0 0 -5.51 -1.84 0 0 -3.68 -1.84 0 0 -7.34 -1.83 0 0 -1.84 -1.84 0 0 -5.51 -1.84 0 0 -5.51 -1.83 0 0 -3.67 -1.84 0 0 -3.67 -1.83 0 0 -3.67 -1.84 0 0 -3.68 -1.83 0 0 -3.67 -1.84 0 0 -3.67 -1.84 0 0 -3.68 -1.83 0 0 -3.67 -1.84 0 0 -3.67 -1.84 0 0 -3.68 -1.83 0 0 -3.67 -1.84 0 0 -3.67 -1.84 0 0 -1.84 -1.83 0 0 -5.51 -1.84 0 0 -1.84 -1.84 0 0 -5.51 -1.83 0 0 -1.83 -1.84 0 0 -1.84 -1.84 0 0 -3.67 -1.83 0 0 -3.67 -1.84 0 0 -1.84 -1.84 0 0 -1.84 -1.83 0 0 -1.83 -1.84 0 0 -3.68 -1.84 0 0 -1.83 -1.83 0 0 -3.68 -1.84 0 0 -1.83 -1.84 0 0 -1.84 -1.83 0 0 -1.84 -1.84 0 0 -3.67 -1.84 0 0 -1.84 -1.83 0 0 -1.83 -1.84 0 0 -1.84 -1.83 0 0 -1.84 -1.84 0 0 -1.83 -1.84 0 0 -1.84 -1.83 0 0 -1.84 -1.84 0 0 -1.83 -1.84 0 0 -3.68 -1.83 0 0 -1.83 -1.84 0 0 -1.84 -1.83 0 0 -1.83 -3.68 0 0 -1.84 -1.83 0 0 -1.84 -1.84 0 0 -1.83 -1.84 0 0 -1.84 -3.67 0 0 -1.83 -1.84 0 0 -1.84 -1.83 0 0 -1.84 -3.68 0 0 -1.83 -1.83 0 0 -1.84 -3.68 0 0 -1.84 -3.67 0 0 -1.83 -1.84 0 0 -1.84 -3.67 0 0 -1.84 -3.67 0 0 -1.83 -3.68 0 0 -1.84 -3.67 0 0 -1.84 -7.34 0 0 -1.83 -5.51 0 0 -1.84 -3.68 0 0 -1.84 -7.34 0 0 -1.83 -36.74 0 0 1.83z"/>
   <path class="fil0" d="M1281.39 719.97l-1.83 0 0 11.02 -1.84 0 0 25.72 -1.84 0 0 16.53 -1.83 0 0 20.2 -1.84 0 0 5.51 -1.84 0 0 7.34 -1.83 0 0 25.72 -1.84 0 0 9.18 -1.84 0 0 1.83 -1.83 0 0 9.18 -1.84 0 0 23.88 -1.84 0 0 5.51 -1.83 0 0 1.84 -1.84 0 0 9.18 -1.84 0 0 5.51 -1.83 0 0 9.18 -1.84 0 0 5.51 -1.84 0 0 3.67 -1.83 0 0 5.51 -1.84 0 0 7.35 -1.84 0 0 3.67 -1.83 0 0 5.51 -1.84 0 0 3.68 -1.84 0 0 5.51 -1.83 0 0 3.67 -1.84 0 0 5.51 -5.51 0 0 -3.67 -1.83 0 0 -3.68 -1.84 0 0 -3.67 -1.84 0 0 -9.18 -1.83 0 0 -3.68 -1.84 0 0 -5.51 -1.84 0 0 -5.51 -1.83 0 0 -5.51 -1.84 0 0 -1.83 -1.84 0 0 -9.19 -1.83 0 0 -7.34 -1.84 0 0 -5.51 -1.84 0 0 -7.35 -1.83 0 0 -7.34 -1.84 0 0 -11.02 -1.84 0 0 -7.35 -1.83 0 0 -7.35 -1.84 0 0 -11.01 -1.84 0 0 -12.86 -1.83 0 0 -9.18 -1.84 0 0 -5.51 -1.84 0 0 -14.69 -1.83 0 0 -14.69 -1.84 0 0 -20.21 -1.83 0 0 -12.85 -1.84 0 0 -16.53 -1.84 0 0 -53.26 -1.83 0 0 -95.5 1.83 0 0 -38.57 1.84 0 0 -33.05 1.84 0 0 -20.2 1.83 0 0 -12.86 1.84 0 0 -18.36 1.83 0 0 -14.7 1.84 0 0 -7.34 1.84 0 0 -11.02 1.83 0 0 -11.02 1.84 0 0 -11.02 1.84 0 0 -11.02 1.83 0 0 -1.83 1.84 0 0 -14.7 1.84 0 0 -5.51 1.83 0 0 -9.18 1.84 0 0 -7.35 1.84 0 0 -7.34 1.83 0 0 -9.18 1.84 0 0 -3.67 1.84 0 0 -11.02 1.83 0 0 -7.35 1.84 0 0 -5.51 1.84 0 0 -7.35 1.83 0 0 -1.83 1.84 0 0 -9.19 1.84 0 0 -3.67 1.83 0 0 -7.34 5.51 0 0 9.18 1.84 0 0 3.67 1.83 0 0 7.35 1.84 0 0 3.67 1.84 0 0 9.18 1.83 0 0 3.68 1.84 0 0 5.51 1.84 0 0 7.34 1.83 0 0 5.51 1.84 0 0 12.86 1.84 0 0 5.5 1.83 0 0 9.19 1.84 0 0 5.51 1.84 0 0 12.85 1.83 0 0 5.51 1.84 0 0 12.86 3.67 0 0 12.85 1.84 0 0 22.04 1.84 0 0 12.86 1.83 0 0 14.69 1.84 0 0 1.83 1.84 0 0 16.53 1.83 0 0 20.21 1.84 0 0 25.71 1.84 0 0 36.73 1.83 0 0 23.87 1.84 0 0 69.79 -1.84 0 0 58.76zm-202.02 -650.12l-11.02 0 0 1.84 -5.51 0 0 1.84 -5.51 0 0 1.83 -5.5 0 0 1.84 -5.51 0 0 1.84 -3.67 0 0 1.83 -3.68 0 0 1.84 -1.83 0 0 1.84 -3.68 0 0 1.83 -3.67 0 0 1.84 -1.84 0 0 1.84 -3.67 0 0 1.83 -1.84 0 0 1.84 -3.67 0 0 1.84 -1.84 0 0 1.83 -3.67 0 0 1.84 -1.84 0 0 1.83 -1.83 0 0 1.84 -1.84 0 0 1.84 -1.84 0 0 1.83 -1.83 0 0 1.84 -1.84 0 0 1.83 -1.84 0 0 1.84 -1.83 0 0 1.84 -1.84 0 0 1.83 -1.83 0 0 1.84 -1.84 0 0 1.84 -1.84 0 0 1.83 -1.83 0 0 1.84 -1.84 0 0 1.84 -1.84 0 0 3.67 -1.83 0 0 1.84 -1.84 0 0 1.83 -1.84 0 0 1.84 -1.83 0 0 1.84 -1.84 0 0 3.67 -1.84 0 0 1.84 -1.83 0 0 1.83 -1.84 0 0 3.68 -1.84 0 0 1.83 -1.83 0 0 7.35 1.83 0 0 3.67 1.84 0 0 1.84 1.84 0 0 3.67 1.83 0 0 3.67 1.84 0 0 1.84 1.84 0 0 3.67 1.83 0 0 3.68 1.84 0 0 3.67 1.84 0 0 1.84 1.83 0 0 3.67 1.84 0 0 3.67 1.84 0 0 3.68 1.83 0 0 5.51 1.84 0 0 1.83 1.84 0 0 -1.83 1.83 0 0 -3.68 1.84 0 0 -3.67 1.83 0 0 -3.67 1.84 0 0 -1.84 1.84 0 0 -3.67 1.83 0 0 -1.84 1.84 0 0 -3.67 1.84 0 0 -1.84 1.83 0 0 -3.67 1.84 0 0 -1.84 1.84 0 0 -1.84 1.83 0 0 -1.83 1.84 0 0 -3.68 1.84 0 0 -1.83 1.83 0 0 -1.84 1.84 0 0 -1.83 1.84 0 0 -3.68 1.83 0 0 -1.83 1.84 0 0 -1.84 1.84 0 0 -1.84 1.83 0 0 -1.83 1.84 0 0 -1.84 1.84 0 0 -1.84 1.83 0 0 -1.83 1.84 0 0 -1.84 3.67 0 0 -1.84 1.84 0 0 -1.83 1.84 0 0 -1.84 1.83 0 0 -1.84 3.68 0 0 -1.83 1.83 0 0 -1.84 1.83 0 0 -1.84 7.35 0 0 -1.83 1.84 0 0 -1.84 5.51 0 0 -3.67 9.18 0 0 -1.84 27.55 0 0 1.84 7.35 0 0 3.67 7.34 0 0 1.84 1.84 0 0 1.83 5.51 0 0 1.84 1.83 0 0 1.84 3.68 0 0 1.83 1.83 0 0 1.84 3.68 0 0 1.84 1.83 0 0 1.83 1.84 0 0 1.84 1.84 0 0 1.84 1.83 0 0 1.83 1.84 0 0 1.84 1.84 0 0 1.84 1.83 0 0 1.83 1.84 0 0 1.84 1.84 0 0 1.84 1.83 0 0 1.83 1.84 0 0 1.84 1.84 0 0 1.84 1.83 0 0 1.83 1.84 0 0 3.67 1.84 0 0 1.84 1.83 0 0 1.84 1.84 0 0 1.83 1.83 0 0 3.68 1.84 0 0 1.83 1.84 0 0 1.84 1.83 0 0 3.67 1.84 0 0 1.84 1.84 0 0 3.67 1.83 0 0 1.84 1.84 0 0 3.67 1.83 0 0 3.68 1.84 0 0 1.83 1.84 0 0 3.68 1.83 0 0 3.67 1.84 0 0 1.84 1.84 0 0 3.67 1.83 0 0 3.67 1.84 0 0 11.02 -1.84 0 0 1.83 -1.83 0 0 3.68 -1.84 0 0 5.51 -1.84 0 0 3.67 -1.83 0 0 5.51 -1.84 0 0 3.67 -1.84 0 0 3.68 -1.83 0 0 7.34 -1.84 0 0 1.84 -1.83 0 0 7.35 -1.84 0 0 5.51 -1.84 0 0 5.51 -1.83 0 0 5.51 -1.84 0 0 5.51 -1.84 0 0 3.67 -1.83 0 0 3.67 -1.84 0 0 11.02 -1.83 0 0 5.51 -1.84 0 0 3.67 -1.84 0 0 7.35 -1.83 0 0 9.18 -1.84 0 0 11.02 -1.84 0 0 3.67 -1.83 0 0 11.02 -1.84 0 0 7.35 -1.84 0 0 5.51 -1.83 0 0 11.02 -1.84 0 0 7.34 -1.84 0 0 16.53 -1.83 0 0 7.34 -1.84 0 0 14.7 -1.84 0 0 11.02 -1.83 0 0 12.85 -1.84 0 0 12.86 -1.84 0 0 16.53 -1.83 0 0 16.53 -1.84 0 0 12.85 -1.84 0 0 23.88 -1.83 0 0 38.56 -1.84 0 0 102.85 1.84 0 0 40.4 1.83 0 0 22.04 1.84 0 0 22.04 1.84 0 0 16.53 1.83 0 0 12.85 1.84 0 0 16.53 1.84 0 0 14.69 1.83 0 0 7.35 1.84 0 0 12.85 1.84 0 0 9.18 1.83 0 0 9.19 1.84 0 0 16.53 1.84 0 0 5.51 1.83 0 0 9.18 1.84 0 0 5.51 1.84 0 0 3.67 1.83 0 0 9.18 1.84 0 0 11.02 1.84 0 0 7.35 1.83 0 0 3.67 1.84 0 0 7.35 1.84 0 0 7.35 1.83 0 0 5.51 1.84 0 0 1.83 1.83 0 0 5.51 1.84 0 0 3.67 1.84 0 0 3.68 1.83 0 0 3.67 1.84 0 0 1.83 1.84 0 0 3.68 1.83 0 0 3.67 1.84 0 0 3.67 1.83 0 0 1.84 1.84 0 0 3.67 1.84 0 0 1.84 1.83 0 0 1.84 1.84 0 0 1.83 1.84 0 0 1.84 1.83 0 0 1.84 1.84 0 0 1.83 1.84 0 0 1.84 1.83 0 0 1.84 1.84 0 0 1.83 3.67 0 0 1.84 3.68 0 0 1.84 5.51 0 0 1.83 20.2 0 0 -1.83 5.51 0 0 -1.84 3.67 0 0 -1.84 3.67 0 0 -1.83 1.84 0 0 -1.84 1.84 0 0 -1.84 1.83 0 0 -1.83 1.84 0 0 -1.84 1.84 0 0 -1.84 1.83 0 0 -1.83 1.84 0 0 -1.84 1.84 0 0 -3.67 1.83 0 0 -3.68 1.84 0 0 -1.83 1.84 0 0 -3.68 3.67 0 0 -3.67 1.84 0 0 -3.67 1.83 0 0 -5.51 1.84 0 0 -5.51 1.84 0 0 -3.67 1.83 0 0 -5.51 1.84 0 0 -5.51 1.84 0 0 -3.67 1.83 0 0 -3.68 1.84 0 0 -7.34 1.84 0 0 -5.51 1.83 0 0 -5.51 1.84 0 0 -9.19 1.84 0 0 -5.51 1.83 0 0 -3.67 1.83 0 0 -9.18 1.84 0 0 -7.35 1.84 0 0 -9.18 1.83 0 0 -12.86 1.84 0 0 -12.85 1.84 0 0 -11.02 1.83 0 0 -5.51 1.84 0 0 -18.36 1.84 0 0 -14.7 1.83 0 0 -7.34 1.84 0 0 -25.71 1.84 0 0 -11.02 1.83 0 0 -38.57 1.84 0 0 -1.83 1.84 0 0 -174.48 -3.68 0 0 -51.42 -1.83 0 0 -14.69 -1.84 0 0 -12.85 -1.84 0 0 -16.53 -1.83 0 0 -11.02 -1.84 0 0 -11.02 -1.84 0 0 -9.19 -1.83 0 0 -12.85 -1.84 0 0 -5.51 -1.84 0 0 -11.02 -1.83 0 0 -12.85 -1.84 0 0 -3.68 -1.84 0 0 -9.18 -1.83 0 0 -9.18 -1.83 0 0 -3.67 -1.84 0 0 -11.02 -1.84 0 0 -7.35 -1.83 0 0 -5.51 -1.84 0 0 -3.67 -1.84 0 0 -9.18 -1.83 0 0 -7.35 -1.84 0 0 -3.67 -1.84 0 0 -7.35 -1.83 0 0 -5.51 -1.84 0 0 -3.67 -1.84 0 0 -5.51 -1.83 0 0 -9.18 -1.84 0 0 -3.68 -1.84 0 0 -5.51 -1.83 0 0 -5.51 -1.84 0 0 -5.51 -1.84 0 0 -3.67 -1.83 0 0 -3.67 -1.84 0 0 -5.51 -1.84 0 0 -7.35 -1.83 0 0 -5.51 -1.84 0 0 -1.83 -1.84 0 0 -1.84 -1.83 0 0 -5.51 -1.84 0 0 -3.67 -1.84 0 0 -3.67 -1.83 0 0 -3.68 -1.84 0 0 -3.67 -1.84 0 0 -3.67 -1.83 0 0 -3.68 -1.84 0 0 -3.67 -1.84 0 0 -1.84 -1.83 0 0 -3.67 -1.84 0 0 -3.67 -1.84 0 0 -3.68 -1.83 0 0 -3.67 -1.84 0 0 -1.84 -1.83 0 0 -5.51 -1.84 0 0 -1.83 -1.84 0 0 -1.84 -1.83 0 0 -1.83 -1.84 0 0 -5.51 -1.84 0 0 -3.68 -1.83 0 0 -1.83 -1.84 0 0 -1.84 -1.84 0 0 -3.67 -1.83 0 0 -1.84 -1.84 0 0 -1.84 -1.84 0 0 -1.83 -1.83 0 0 -3.68 -1.84 0 0 -1.83 -1.84 0 0 -1.84 -1.83 0 0 -1.84 -1.84 0 0 -3.67 -1.84 0 0 -1.84 -1.83 0 0 -1.83 -1.84 0 0 -1.84 -1.84 0 0 -1.84 -1.83 0 0 -1.83 -1.84 0 0 -1.84 -1.84 0 0 -1.84 -1.83 0 0 -1.83 -1.84 0 0 -1.84 -1.83 0 0 -1.83 -1.84 0 0 -1.84 -3.67 0 0 -1.84 -1.84 0 0 -1.83 -1.84 0 0 -1.84 -1.83 0 0 -1.83 -3.67 0 0 -1.84 -1.84 0 0 -1.84 -1.84 0 0 -1.83 -3.67 0 0 -1.84 -3.67 0 0 -1.84 -1.84 0 0 -1.83 -3.67 0 0 -1.84 -3.68 0 0 -1.84 -3.67 0 0 -1.83 -3.67 0 0 -1.84 -3.68 0 0 -1.84 -3.67 0 0 -1.83 -9.18 0 0 -1.84 -3.67 0 0 -1.84 -12.86 0 0 -1.83 -29.39 0 0 1.83z"/>
   <path class="fil0" d="M1450.35 576.73l1.84 0 0 -33.06 1.83 0 0 -11.02 1.84 0 0 -25.71 1.84 0 0 -18.36 1.83 0 0 -14.7 1.84 0 0 -18.36 1.84 0 0 -7.35 1.83 0 0 -11.02 1.84 0 0 -23.87 1.84 0 0 -5.51 1.83 0 0 -14.69 3.68 0 0 -20.2 1.83 0 0 -5.51 1.84 0 0 -9.19 1.84 0 0 -3.67 1.83 0 0 -9.18 1.84 0 0 -1.84 1.84 0 0 -11.01 1.83 0 0 -5.51 1.84 0 0 -7.35 1.83 0 0 -1.84 1.84 0 0 -7.34 1.84 0 0 -5.51 1.83 0 0 -7.35 1.84 0 0 -9.18 1.84 0 0 -3.67 1.83 0 0 -1.84 3.68 0 0 7.35 1.83 0 0 7.34 1.84 0 0 1.84 1.84 0 0 7.34 1.83 0 0 9.19 1.84 0 0 1.83 1.83 0 0 7.35 1.84 0 0 9.18 1.84 0 0 11.02 1.83 0 0 3.67 1.84 0 0 7.35 1.84 0 0 11.02 1.83 0 0 5.51 1.84 0 0 7.34 1.84 0 0 12.86 1.83 0 0 5.51 1.84 0 0 9.18 1.84 0 0 12.85 1.83 0 0 7.35 1.84 0 0 11.02 1.84 0 0 12.86 1.83 0 0 14.69 1.84 0 0 12.85 1.84 0 0 14.7 1.83 0 0 18.36 1.84 0 0 25.71 1.84 0 0 23.88 1.83 0 0 137.74 -1.83 0 0 3.67 -1.84 0 0 42.24 -1.84 0 0 18.36 -1.83 0 0 18.37 -1.84 0 0 11.02 -1.84 0 0 14.69 -1.83 0 0 11.02 -1.84 0 0 11.02 -1.84 0 0 9.18 -1.83 0 0 12.85 -1.84 0 0 7.35 -1.84 0 0 7.35 -1.83 0 0 12.85 -1.84 0 0 7.35 -1.84 0 0 3.67 -1.83 0 0 7.35 -1.84 0 0 11.02 -1.84 0 0 5.51 -1.83 0 0 5.51 -1.84 0 0 5.51 -1.84 0 0 1.83 -1.83 0 0 3.68 -1.84 0 0 3.67 -1.83 0 0 5.51 -1.84 0 0 5.51 -1.84 0 0 5.51 -1.83 0 0 3.67 -1.84 0 0 1.84 -3.67 0 0 -5.51 -1.84 0 0 -3.67 -1.84 0 0 -3.68 -1.83 0 0 -5.51 -1.84 0 0 -3.67 -1.84 0 0 -3.67 -1.83 0 0 -5.51 -1.84 0 0 -7.35 -1.83 0 0 -3.67 -1.84 0 0 -9.19 -1.84 0 0 -1.83 -1.83 0 0 -5.51 -1.84 0 0 -12.86 -1.84 0 0 -3.67 -1.83 0 0 -12.86 -1.84 0 0 -5.51 -1.84 0 0 -9.18 -1.83 0 0 -16.53 -1.84 0 0 -5.5 -1.84 0 0 -16.53 -1.83 0 0 -12.86 -1.84 0 0 -18.36 -1.84 0 0 -5.51 -1.83 0 0 -31.23 -1.84 0 0 -14.69 -1.84 0 0 -25.71 -1.83 0 0 -18.36 -1.84 0 0 -112.03zm-104.68 -506.88l-5.51 0 0 1.84 -5.51 0 0 1.84 -7.35 0 0 1.83 -3.67 0 0 1.84 -3.67 0 0 1.84 -5.51 0 0 1.83 -1.84 0 0 1.84 -3.67 0 0 1.84 -3.68 0 0 1.83 -3.66 0 0 1.84 -1.84 0 0 1.84 -3.67 0 0 1.83 -1.84 0 0 1.84 -3.67 0 0 1.84 -1.84 0 0 1.83 -1.84 0 0 1.84 -3.67 0 0 1.83 -1.84 0 0 1.84 -1.83 0 0 1.84 -1.84 0 0 1.83 -1.84 0 0 1.84 -1.83 0 0 1.83 -1.84 0 0 1.84 -1.84 0 0 1.84 -1.83 0 0 1.83 -1.84 0 0 1.84 -1.84 0 0 1.84 -1.83 0 0 1.83 -1.84 0 0 1.84 -1.84 0 0 1.84 -1.83 0 0 3.67 -1.84 0 0 1.84 -1.84 0 0 1.83 -1.83 0 0 1.84 -1.84 0 0 3.67 -1.84 0 0 1.84 -1.83 0 0 3.67 -1.84 0 0 1.84 -1.84 0 0 1.84 -1.83 0 0 3.67 -1.84 0 0 3.67 1.84 0 0 3.68 1.83 0 0 3.67 1.84 0 0 1.83 1.84 0 0 3.68 1.83 0 0 3.67 1.84 0 0 3.67 1.84 0 0 1.84 1.83 0 0 5.51 1.84 0 0 1.84 1.84 0 0 5.51 3.67 0 0 5.51 1.84 0 0 1.83 1.83 0 0 1.84 3.68 0 0 -3.67 3.67 0 0 -5.51 1.84 0 0 -3.68 3.67 0 0 -3.67 1.84 0 0 -3.67 1.83 0 0 -1.84 1.84 0 0 -1.84 1.84 0 0 -3.67 1.83 0 0 -1.84 1.84 0 0 -3.67 1.84 0 0 -1.84 1.83 0 0 -1.83 1.84 0 0 -1.84 1.84 0 0 -1.83 1.83 0 0 -1.84 1.84 0 0 -1.84 1.84 0 0 -1.83 1.83 0 0 -1.84 1.83 0 0 -1.84 1.84 0 0 -1.83 1.84 0 0 -1.84 1.83 0 0 -1.84 1.84 0 0 -1.83 1.84 0 0 -1.84 1.83 0 0 -1.84 1.84 0 0 -1.83 1.84 0 0 -1.84 1.83 0 0 -1.84 3.68 0 0 -1.83 1.83 0 0 -1.84 5.51 0 0 -1.84 3.68 0 0 -1.83 1.83 0 0 -1.84 5.51 0 0 -1.84 1.84 0 0 -1.83 9.18 0 0 -1.84 25.71 0 0 1.84 9.19 0 0 1.83 3.67 0 0 1.84 3.67 0 0 3.67 5.51 0 0 1.84 1.84 0 0 1.84 3.67 0 0 1.83 1.84 0 0 1.84 3.67 0 0 1.84 1.84 0 0 1.83 1.84 0 0 1.84 1.83 0 0 1.84 1.84 0 0 1.83 1.83 0 0 1.84 1.84 0 0 1.84 1.84 0 0 1.83 1.83 0 0 1.84 1.84 0 0 1.84 1.83 0 0 1.83 1.84 0 0 1.84 1.84 0 0 1.84 1.83 0 0 1.83 1.84 0 0 1.84 1.84 0 0 3.67 1.83 0 0 1.84 1.84 0 0 1.83 1.84 0 0 1.84 1.83 0 0 3.67 1.84 0 0 1.84 1.84 0 0 3.67 1.83 0 0 1.84 1.84 0 0 1.84 1.84 0 0 1.83 1.83 0 0 5.51 1.84 0 0 1.84 1.84 0 0 1.84 1.83 0 0 7.34 1.84 0 0 3.68 1.84 0 0 1.83 1.83 0 0 3.68 1.84 0 0 14.68 -1.84 0 0 3.68 -1.83 0 0 3.67 -1.84 0 0 3.67 -1.84 0 0 3.68 -1.83 0 0 7.34 -1.84 0 0 7.35 -1.84 0 0 5.51 -1.83 0 0 5.51 -1.84 0 0 5.51 -1.84 0 0 1.84 -1.83 0 0 5.51 -1.84 0 0 7.34 -1.84 0 0 5.51 -1.83 0 0 3.67 -1.84 0 0 7.35 -1.84 0 0 5.51 -1.83 0 0 9.18 -1.84 0 0 3.68 -1.84 0 0 9.18 -1.83 0 0 5.51 -1.84 0 0 7.34 -1.84 0 0 9.19 -1.83 0 0 5.5 -1.84 0 0 9.19 -1.83 0 0 11.02 -1.84 0 0 7.34 -1.84 0 0 5.51 -1.83 0 0 9.19 -1.84 0 0 9.18 -1.83 0 0 20.2 -1.84 0 0 11.02 -1.84 0 0 18.36 -1.83 0 0 16.53 -1.84 0 0 5.51 -1.84 0 0 22.04 -1.83 0 0 14.69 -1.84 0 0 45.91 -1.84 0 0 7.35 -1.83 0 0 115.7 1.83 0 0 23.88 1.84 0 0 31.21 1.84 0 0 16.53 1.83 0 0 14.7 1.84 0 0 12.85 1.84 0 0 25.71 1.83 0 0 12.86 1.84 0 0 7.35 1.84 0 0 5.5 1.83 0 0 22.04 1.84 0 0 5.51 1.83 0 0 12.86 1.84 0 0 9.18 1.84 0 0 5.51 1.83 0 0 7.35 1.84 0 0 7.34 1.83 0 0 7.35 1.84 0 0 3.67 1.84 0 0 9.18 1.83 0 0 3.68 1.84 0 0 5.51 1.84 0 0 5.51 1.83 0 0 5.51 1.84 0 0 3.67 1.84 0 0 3.67 1.83 0 0 5.51 1.84 0 0 3.67 1.84 0 0 3.68 1.83 0 0 5.5 1.84 0 0 3.68 1.84 0 0 1.83 1.83 0 0 1.84 1.84 0 0 3.67 1.84 0 0 5.51 1.83 0 0 1.84 1.84 0 0 1.84 1.84 0 0 3.67 1.83 0 0 1.84 1.84 0 0 1.83 3.67 0 0 1.84 1.84 0 0 1.84 1.84 0 0 1.83 3.67 0 0 1.84 1.84 0 0 1.84 11.01 0 0 1.83 20.2 0 0 -1.83 3.68 0 0 -1.84 1.83 0 0 -1.84 3.68 0 0 -1.83 1.83 0 0 -1.84 1.84 0 0 -1.84 1.84 0 0 -1.83 1.83 0 0 -1.84 1.84 0 0 -1.84 1.84 0 0 -1.83 1.83 0 0 -1.84 1.84 0 0 -3.67 1.84 0 0 -1.84 1.83 0 0 -3.67 1.84 0 0 -1.84 1.84 0 0 -3.67 1.83 0 0 -3.68 1.84 0 0 -1.83 1.84 0 0 -7.35 1.83 0 0 -3.67 1.84 0 0 -3.67 1.83 0 0 -1.84 1.84 0 0 -7.34 1.84 0 0 -5.51 1.83 0 0 -5.51 1.84 0 0 -1.84 1.84 0 0 -5.51 1.83 0 0 -14.69 1.84 0 0 -5.51 1.84 0 0 -7.35 1.83 0 0 -1.83 1.84 0 0 -9.19 1.84 0 0 -3.67 1.83 0 0 -18.37 1.84 0 0 -1.83 1.84 0 0 -7.35 1.83 0 0 -23.87 1.84 0 0 -7.35 1.84 0 0 -3.67 1.83 0 0 -22.04 1.84 0 0 -5.51 1.84 0 0 -18.36 1.83 0 0 -14.7 1.84 0 0 -23.87 1.84 0 0 -34.89 1.83 0 0 -34.9 1.84 0 0 -80.8 -1.84 0 0 -58.77 -1.83 0 0 -9.18 -1.84 0 0 -20.21 -1.84 0 0 -16.53 -1.83 0 0 -14.69 -1.84 0 0 -14.69 -1.84 0 0 -18.37 -1.83 0 0 -5.51 -1.84 0 0 -20.2 -1.84 0 0 -7.34 -1.83 0 0 -11.02 -1.84 0 0 -3.67 -1.84 0 0 -5.51 -1.83 0 0 -14.7 -1.84 0 0 -9.18 -1.84 0 0 -12.85 -1.83 0 0 -3.68 -1.84 0 0 -5.5 -1.84 0 0 -9.19 -1.83 0 0 -7.34 -1.84 0 0 -3.68 -1.84 0 0 -11.02 -1.83 0 0 -3.67 -1.84 0 0 -5.51 -1.84 0 0 -7.34 -1.83 0 0 -7.35 -1.84 0 0 -3.67 -1.83 0 0 -7.35 -1.84 0 0 -5.51 -1.84 0 0 -3.67 -1.83 0 0 -3.68 -1.84 0 0 -3.67 -1.84 0 0 -7.35 -1.83 0 0 -3.67 -1.84 0 0 -3.67 -1.84 0 0 -5.51 -1.83 0 0 -3.68 -1.84 0 0 -5.51 -1.84 0 0 -5.5 -1.83 0 0 -3.67 -1.84 0 0 -3.68 -1.84 0 0 -3.67 -1.83 0 0 -3.67 -1.84 0 0 -3.68 -1.84 0 0 -3.67 -1.83 0 0 -3.67 -1.84 0 0 -5.51 -1.84 0 0 -1.84 -1.83 0 0 -3.67 -1.84 0 0 -3.68 -1.83 0 0 -3.67 -1.84 0 0 -1.84 -1.84 0 0 -3.67 -1.83 0 0 -3.67 -1.84 0 0 -3.68 -1.84 0 0 -1.83 -1.83 0 0 -3.67 -1.84 0 0 -1.84 -1.84 0 0 -3.67 -1.83 0 0 -1.84 -1.84 0 0 -1.84 -1.84 0 0 -3.67 -1.83 0 0 -1.84 -1.84 0 0 -3.67 -1.83 0 0 -1.84 -1.84 0 0 -1.83 -1.84 0 0 -3.68 -1.83 0 0 -1.83 -1.84 0 0 -1.84 -1.84 0 0 -3.67 -1.83 0 0 -1.84 -1.84 0 0 -1.84 -1.84 0 0 -1.83 -1.83 0 0 -1.84 -1.84 0 0 -1.84 -1.84 0 0 -1.83 -1.83 0 0 -1.84 -1.84 0 0 -1.84 -1.84 0 0 -1.83 -1.83 0 0 -1.84 -1.84 0 0 -1.83 -1.84 0 0 -1.84 -1.83 0 0 -1.84 -3.68 0 0 -1.83 -1.83 0 0 -1.84 -1.84 0 0 -1.83 -3.67 0 0 -1.84 -1.84 0 0 -1.84 -1.84 0 0 -1.83 -3.67 0 0 -1.84 -1.84 0 0 -1.84 -3.67 0 0 -1.83 -3.67 0 0 -1.84 -1.84 0 0 -1.84 -3.67 0 0 -1.83 -5.51 0 0 -1.84 -1.83 0 0 -1.84 -5.51 0 0 -1.83 -7.35 0 0 -1.84 -5.51 0 0 -1.84 -5.51 0 0 -1.83 -42.24 0 0 1.83z"/>
   <path class="fil0" d="M737.78 690.59l-1.83 0 0 38.57 -1.84 0 0 16.53 -1.84 0 0 25.71 -1.83 0 0 18.36 -1.84 0 0 7.35 -1.84 0 0 12.86 -1.83 0 0 12.85 -1.84 0 0 14.69 -1.84 0 0 11.02 -1.83 0 0 9.18 -1.84 0 0 1.84 -1.84 0 0 12.86 -1.83 0 0 7.34 -1.84 0 0 11.02 -1.84 0 0 3.68 -1.83 0 0 9.18 -1.84 0 0 5.51 -1.84 0 0 7.34 -1.83 0 0 3.68 -1.84 0 0 5.51 -1.84 0 0 5.51 -1.83 0 0 5.51 -1.84 0 0 3.67 -1.84 0 0 7.35 -1.83 0 0 1.83 -1.83 0 0 5.51 -1.85 0 0 1.84 -3.66 0 0 -3.67 -1.84 0 0 -3.68 -1.84 0 0 -5.51 -1.83 0 0 -3.67 -1.84 0 0 -7.35 -1.84 0 0 -1.83 -1.83 0 0 -3.68 -1.84 0 0 -9.18 -1.84 0 0 -5.51 -1.83 0 0 -1.84 -1.84 0 0 -11.01 -1.84 0 0 -5.51 -1.83 0 0 -3.68 -1.84 0 0 -5.51 -1.84 0 0 -11.02 -1.83 0 0 -9.18 -1.84 0 0 -7.35 -1.84 0 0 -12.85 -1.83 0 0 -9.18 -1.84 0 0 -14.69 -1.84 0 0 -5.51 -1.83 0 0 -20.21 -1.84 0 0 -14.69 -1.84 0 0 -16.53 -1.83 0 0 -9.18 -1.84 0 0 -27.55 -1.84 0 0 -23.87 -1.83 0 0 -123.05 1.83 0 0 -53.25 1.84 0 0 -12.86 1.84 0 0 -16.53 1.83 0 0 -12.86 1.84 0 0 -18.36 1.84 0 0 -18.37 1.83 0 0 -9.18 1.84 0 0 -9.18 1.84 0 0 -11.02 1.83 0 0 -14.69 1.84 0 0 -3.67 1.84 0 0 -14.7 1.83 0 0 -5.51 1.84 0 0 -5.51 1.84 0 0 -7.34 1.83 0 0 -14.69 1.84 0 0 -5.51 1.84 0 0 -11.02 1.83 0 0 -5.51 1.84 0 0 -3.67 1.84 0 0 -11.02 1.83 0 0 -1.84 1.84 0 0 -7.35 1.84 0 0 -3.67 1.83 0 0 -9.18 1.84 0 0 -3.67 1.84 0 0 -7.35 3.66 0 0 7.35 1.85 0 0 3.67 1.83 0 0 7.34 1.83 0 0 3.68 1.84 0 0 9.18 1.84 0 0 1.84 1.83 0 0 7.34 1.84 0 0 5.51 1.84 0 0 9.19 1.83 0 0 3.67 1.84 0 0 9.18 1.84 0 0 11.02 1.83 0 0 9.18 1.84 0 0 7.35 1.84 0 0 7.34 1.83 0 0 9.19 1.84 0 0 12.85 1.84 0 0 11.02 1.83 0 0 11.02 1.84 0 0 5.51 1.84 0 0 14.69 1.83 0 0 12.86 1.84 0 0 14.69 1.84 0 0 14.69 1.83 0 0 25.71 1.84 0 0 9.19 1.84 0 0 49.58 1.83 0 0 20.2 1.84 0 0 55.1 -1.84 0 0 38.56zm-200.18 -620.74l-11.02 0 0 1.84 -7.34 0 0 1.84 -5.51 0 0 1.83 -7.35 0 0 1.84 -3.67 0 0 1.84 -3.67 0 0 1.83 -3.68 0 0 1.84 -3.67 0 0 1.84 -1.84 0 0 1.83 -3.67 0 0 1.84 -3.67 0 0 1.84 -1.84 0 0 1.83 -3.67 0 0 1.84 -1.84 0 0 1.84 -1.84 0 0 1.83 -3.67 0 0 1.84 -1.84 0 0 1.83 -1.83 0 0 1.84 -3.68 0 0 1.84 -1.83 0 0 1.83 -1.84 0 0 1.84 -1.84 0 0 1.83 -1.83 0 0 1.84 -1.84 0 0 1.84 -1.84 0 0 1.83 -1.83 0 0 1.84 -1.84 0 0 3.67 -1.84 0 0 1.84 -1.83 0 0 1.84 -1.84 0 0 1.83 -1.83 0 0 3.68 -1.84 0 0 1.83 -1.83 0 0 1.84 -1.84 0 0 1.84 -1.84 0 0 3.67 -1.83 0 0 1.84 -1.84 0 0 1.83 -1.84 0 0 3.68 -1.83 0 0 1.83 -1.84 0 0 7.35 1.84 0 0 3.67 1.83 0 0 1.84 1.84 0 0 3.67 1.84 0 0 3.67 1.83 0 0 1.84 1.84 0 0 3.67 1.84 0 0 3.68 1.83 0 0 3.67 1.84 0 0 3.67 1.83 0 0 3.68 1.84 0 0 3.67 1.83 0 0 3.67 1.84 0 0 3.68 3.67 0 0 -1.84 1.84 0 0 -3.67 1.84 0 0 -3.68 1.83 0 0 -3.67 1.84 0 0 -3.67 1.84 0 0 -1.84 1.83 0 0 -1.84 1.84 0 0 -3.67 1.84 0 0 -1.84 1.83 0 0 -3.67 1.84 0 0 -1.84 1.84 0 0 -1.83 1.83 0 0 -1.84 1.84 0 0 -1.84 1.84 0 0 -3.67 1.83 0 0 -1.83 1.84 0 0 -1.84 1.84 0 0 -1.84 1.83 0 0 -1.83 1.84 0 0 -1.84 1.84 0 0 -1.84 1.83 0 0 -1.83 1.84 0 0 -1.84 1.84 0 0 -1.84 1.83 0 0 -1.83 1.84 0 0 -1.84 1.84 0 0 -1.84 3.67 0 0 -1.83 1.84 0 0 -1.84 1.83 0 0 -1.84 3.67 0 0 -1.83 1.84 0 0 -1.84 3.67 0 0 -1.84 1.84 0 0 -1.83 1.84 0 0 -1.84 7.34 0 0 -1.84 3.68 0 0 -1.83 7.34 0 0 -1.84 25.71 0 0 1.84 5.51 0 0 1.83 3.68 0 0 1.84 7.34 0 0 1.84 1.84 0 0 1.83 5.51 0 0 1.84 1.83 0 0 1.84 3.68 0 0 1.83 1.83 0 0 1.84 1.84 0 0 1.84 3.67 0 0 1.83 1.84 0 0 1.84 1.84 0 0 1.84 1.83 0 0 1.83 1.84 0 0 1.84 1.84 0 0 1.84 1.83 0 0 1.83 1.84 0 0 1.84 1.84 0 0 1.84 1.83 0 0 1.83 1.84 0 0 1.84 1.84 0 0 3.67 1.83 0 0 1.84 1.84 0 0 1.83 1.83 0 0 1.84 1.84 0 0 1.84 1.84 0 0 3.67 1.83 0 0 1.84 1.84 0 0 1.83 1.84 0 0 3.68 1.83 0 0 1.83 1.84 0 0 1.84 1.84 0 0 3.67 1.83 0 0 3.68 1.84 0 0 1.83 1.84 0 0 3.68 1.83 0 0 3.67 3.68 0 0 3.67 1.83 0 0 3.68 1.84 0 0 3.67 1.84 0 0 11.02 -1.84 0 0 7.34 -1.84 0 0 5.51 -1.83 0 0 7.35 -1.84 0 0 1.83 -1.84 0 0 3.68 -1.83 0 0 3.67 -1.84 0 0 5.51 -1.84 0 0 7.35 -1.83 0 0 3.67 -1.84 0 0 7.35 -1.84 0 0 3.67 -1.83 0 0 7.35 -1.84 0 0 3.67 -1.84 0 0 5.51 -1.83 0 0 7.34 -1.84 0 0 5.51 -1.84 0 0 3.68 -1.83 0 0 7.34 -1.84 0 0 7.35 -1.83 0 0 11.02 -1.84 0 0 3.67 -1.84 0 0 12.86 -1.83 0 0 1.83 -1.84 0 0 12.86 -1.84 0 0 11.02 -1.83 0 0 3.67 -1.84 0 0 14.69 -1.84 0 0 3.68 -1.83 0 0 18.36 -1.84 0 0 7.34 -1.84 0 0 16.53 -1.83 0 0 1.84 -1.84 0 0 20.2 -1.84 0 0 7.35 -1.83 0 0 27.55 -1.84 0 0 20.2 -1.84 0 0 27.54 -1.83 0 0 38.57 -1.84 0 0 84.48 1.84 0 0 42.24 1.83 0 0 31.22 1.84 0 0 18.37 1.84 0 0 16.53 1.83 0 0 14.69 1.84 0 0 22.04 1.84 0 0 5.51 1.83 0 0 16.52 1.84 0 0 7.35 1.84 0 0 18.36 1.83 0 0 3.68 1.84 0 0 14.69 1.84 0 0 9.18 1.83 0 0 3.68 1.84 0 0 9.18 1.84 0 0 7.34 1.83 0 0 3.68 1.84 0 0 9.18 1.84 0 0 3.67 1.83 0 0 5.51 1.84 0 0 5.51 1.83 0 0 7.35 1.84 0 0 3.67 1.84 0 0 5.51 1.83 0 0 3.67 1.84 0 0 3.68 1.84 0 0 5.51 1.83 0 0 3.67 1.84 0 0 3.67 1.84 0 0 3.67 1.83 0 0 1.84 1.84 0 0 3.67 1.84 0 0 1.84 1.83 0 0 3.67 1.84 0 0 1.84 1.84 0 0 3.67 1.83 0 0 1.84 1.84 0 0 1.84 1.84 0 0 1.83 1.83 0 0 1.84 1.84 0 0 1.84 3.67 0 0 1.83 1.84 0 0 1.84 5.51 0 0 1.84 7.35 0 0 1.83 16.52 0 0 -1.83 5.51 0 0 -1.84 5.51 0 0 -1.84 3.67 0 0 -1.83 1.84 0 0 -1.84 1.84 0 0 -1.84 1.83 0 0 -1.83 1.84 0 0 -1.84 1.84 0 0 -1.84 1.83 0 0 -1.83 1.84 0 0 -3.68 1.84 0 0 -1.83 1.83 0 0 -3.68 1.84 0 0 -1.83 1.84 0 0 -3.68 1.83 0 0 -3.67 1.84 0 0 -3.67 1.84 0 0 -3.67 1.83 0 0 -3.68 1.84 0 0 -3.67 1.84 0 0 -5.51 1.83 0 0 -3.67 1.84 0 0 -3.67 1.84 0 0 -5.51 1.83 0 0 -7.35 1.84 0 0 -5.51 1.84 0 0 -7.35 1.83 0 0 -5.51 1.84 0 0 -5.51 1.83 0 0 -5.51 1.84 0 0 -9.18 1.84 0 0 -11.02 1.83 0 0 -5.51 1.84 0 0 -14.69 3.67 0 0 -11.02 1.84 0 0 -12.85 1.84 0 0 -14.69 1.83 0 0 -22.04 1.84 0 0 -9.19 1.84 0 0 -3.67 1.83 0 0 -22.04 1.84 0 0 -23.87 1.84 0 0 -18.37 1.83 0 0 -25.71 1.84 0 0 -145.08 -1.84 0 0 -16.53 -1.83 0 0 -23.87 -1.84 0 0 -20.21 -1.84 0 0 -29.38 -1.83 0 0 -1.84 -1.84 0 0 -22.04 -1.84 0 0 -5.51 -1.83 0 0 -14.69 -1.84 0 0 -5.51 -1.84 0 0 -18.36 -1.83 0 0 -5.51 -1.84 0 0 -14.69 -1.84 0 0 -9.19 -1.83 0 0 -5.51 -1.84 0 0 -9.18 -1.84 0 0 -5.51 -1.83 0 0 -7.34 -1.84 0 0 -12.86 -1.83 0 0 -5.51 -1.84 0 0 -7.34 -1.84 0 0 -3.68 -1.83 0 0 -9.18 -1.84 0 0 -3.67 -1.84 0 0 -7.35 -1.83 0 0 -3.67 -1.84 0 0 -7.35 -1.84 0 0 -3.67 -1.83 0 0 -3.67 -1.84 0 0 -9.19 -1.84 0 0 -3.67 -1.83 0 0 -5.51 -1.84 0 0 -3.67 -1.84 0 0 -7.35 -1.83 0 0 -1.84 -1.84 0 0 -7.34 -1.84 0 0 -5.51 -1.83 0 0 -3.68 -1.84 0 0 -3.67 -1.84 0 0 -3.67 -1.83 0 0 -3.67 -1.84 0 0 -5.51 -1.84 0 0 -3.67 -1.83 0 0 -5.51 -1.84 0 0 -1.84 -1.84 0 0 -3.67 -1.83 0 0 -3.68 -1.84 0 0 -3.67 -1.84 0 0 -1.84 -1.83 0 0 -3.67 -1.84 0 0 -3.67 -1.84 0 0 -3.68 -1.83 0 0 -1.83 -1.83 0 0 -3.68 -1.85 0 0 -3.67 -1.83 0 0 -1.84 -1.83 0 0 -3.67 -1.84 0 0 -1.83 -1.84 0 0 -3.68 -1.83 0 0 -1.83 -1.84 0 0 -3.68 -1.84 0 0 -1.83 -1.83 0 0 -3.68 -1.84 0 0 -1.83 -1.84 0 0 -1.84 -1.83 0 0 -3.67 -1.84 0 0 -1.84 -1.84 0 0 -3.67 -1.83 0 0 -1.84 -1.84 0 0 -1.84 -1.84 0 0 -1.83 -1.83 0 0 -1.84 -1.84 0 0 -1.84 -1.84 0 0 -3.67 -1.83 0 0 -1.84 -1.84 0 0 -1.83 -1.84 0 0 -1.84 -1.83 0 0 -1.84 -1.84 0 0 -1.83 -1.84 0 0 -1.84 -1.83 0 0 -1.83 -3.68 0 0 -1.84 -1.83 0 0 -1.84 -1.84 0 0 -1.83 -1.84 0 0 -1.84 -3.67 0 0 -1.83 -1.84 0 0 -1.84 -1.83 0 0 -1.84 -3.67 0 0 -1.83 -1.84 0 0 -1.84 -3.67 0 0 -1.84 -1.84 0 0 -1.83 -3.67 0 0 -1.84 -3.68 0 0 -1.84 -3.67 0 0 -1.83 -3.67 0 0 -1.84 -3.68 0 0 -1.84 -7.34 0 0 -1.83 -3.68 0 0 -1.84 -3.67 0 0 -1.84 -14.69 0 0 -1.83 -27.55 0 0 1.83z"/>
   <path class="fil0" d="M91.15 606.77l0.18 -2.49 0 -49.59 1.84 0 0 -23.87 1.83 0 0 -23.88 1.84 0 0 -11.02 1.84 0 0 -18.36 1.83 0 0 -7.35 1.84 0 0 -25.71 1.84 0 0 -5.51 1.83 0 0 -14.69 1.84 0 0 -18.37 1.84 0 0 -5.5 1.83 0 0 -11.02 1.84 0 0 -5.51 1.84 0 0 -9.19 1.83 0 0 -5.51 1.84 0 0 -11.02 1.84 0 0 -5.5 1.83 0 0 -11.02 1.84 0 0 -3.67 1.84 0 0 -9.19 1.83 0 0 -3.67 1.84 0 0 -7.35 1.83 0 0 -5.51 1.84 0 0 -5.51 1.84 0 0 -9.18 1.83 0 0 -5.51 1.84 0 0 -7.34 1.84 0 0 -1.84 3.67 0 0 1.84 1.83 0 0 9.18 1.84 0 0 7.34 1.84 0 0 3.68 1.83 0 0 11.02 1.84 0 0 3.67 1.84 0 0 5.51 1.83 0 0 7.35 1.84 0 0 7.34 1.84 0 0 7.35 1.83 0 0 7.34 1.84 0 0 11.02 1.84 0 0 7.35 1.83 0 0 9.18 1.84 0 0 3.67 1.84 0 0 9.19 1.83 0 0 11.01 1.84 0 0 9.18 1.84 0 0 14.7 1.83 0 0 5.51 1.84 0 0 11.02 1.84 0 0 16.53 1.83 0 0 14.69 1.84 0 0 9.18 1.84 0 0 29.39 1.83 0 0 11.02 1.84 0 0 56.93 1.83 0 0 108.35 -1.83 0 0 42.24 -1.84 0 0 5.51 -1.83 0 0 31.22 -1.84 0 0 16.53 -1.84 0 0 9.18 -1.83 0 0 16.53 -1.84 0 0 9.18 -1.84 0 0 12.86 -1.83 0 0 9.18 -1.84 0 0 11.02 -1.84 0 0 7.34 -1.83 0 0 5.51 -1.84 0 0 9.19 -1.84 0 0 9.18 -1.83 0 0 5.51 -1.84 0 0 9.18 -1.84 0 0 7.35 -1.83 0 0 5.51 -1.84 0 0 7.34 -1.84 0 0 3.68 -1.83 0 0 5.51 -1.84 0 0 5.51 -1.84 0 0 1.83 -1.83 0 0 5.51 -1.84 0 0 5.51 -1.84 0 0 3.68 -1.83 0 0 3.67 -3.67 0 0 -1.84 -1.84 0 0 -5.51 -1.84 0 0 -3.67 -1.83 0 0 -3.67 -1.84 0 0 -5.51 -1.84 0 0 -3.68 -1.83 0 0 -5.51 -1.84 0 0 -5.51 -1.83 0 0 -5.51 -1.84 0 0 -3.67 -1.84 0 0 -5.51 -1.83 0 0 -3.67 -1.84 0 0 -7.35 -1.84 0 0 -12.85 -1.83 0 0 -9.19 -1.84 0 0 -3.67 -1.84 0 0 -9.18 -1.83 0 0 -9.19 -1.84 0 0 -9.18 -1.84 0 0 -9.18 -1.83 0 0 -25.71 -1.84 0 0 -9.18 -1.84 0 0 -12.86 -1.83 0 0 -18.36 -1.84 0 0 -27.55 -1.84 0 0 -9.19 -1.83 0 0 -23.87 -1.84 0 0 -49.59 -1.84 0 1.66 -50.76zm-84.3 -491.01l1.84 0 0 1.84 12.85 0 0 1.84 3.67 0 0 1.83 3.68 0 0 1.84 7.34 0 0 1.84 3.68 0 0 1.83 1.83 0 0 1.84 3.68 0 0 1.84 1.83 0 0 1.83 3.68 0 0 1.84 1.83 0 0 1.84 1.84 0 0 1.83 1.84 0 0 1.84 1.83 0 0 1.84 3.68 0 0 1.83 1.83 0 0 1.84 1.84 0 0 1.84 1.84 0 0 1.83 1.83 0 0 1.84 1.84 0 0 1.84 1.84 0 0 1.83 1.83 0 0 3.68 1.84 0 0 1.83 1.83 0 0 1.84 1.84 0 0 1.83 1.84 0 0 1.84 1.83 0 0 1.84 1.84 0 0 3.67 1.84 0 0 1.84 1.83 0 0 3.67 1.84 0 0 1.84 1.84 0 0 3.67 1.83 0 0 3.67 1.84 0 0 1.84 1.84 0 0 1.84 1.83 0 0 1.83 1.84 0 0 3.68 1.84 0 0 3.67 1.83 0 0 3.67 1.84 0 0 3.68 1.84 0 0 1.83 1.83 0 0 7.35 1.84 0 0 5.51 -1.84 0 0 5.5 -1.83 0 0 7.35 -1.84 0 0 1.84 -1.84 0 0 3.67 -1.83 0 0 7.35 -1.84 0 0 1.83 -1.84 0 0 9.19 -3.67 0 0 5.51 -1.84 0 0 3.67 -1.83 0 0 9.18 -1.84 0 0 7.35 -1.84 0 0 5.51 -1.83 0 0 3.67 -1.84 0 0 9.18 -1.84 0 0 5.51 -1.83 0 0 5.51 -1.84 0 0 7.35 -1.84 0 0 3.67 -1.83 0 0 11.02 -1.84 0 0 3.68 -1.83 0 0 5.5 -1.84 0 0 9.19 -1.84 0 0 11.01 -1.83 0 0 3.68 -1.84 0 0 11.02 -1.84 0 0 7.34 -1.83 0 0 7.35 -1.84 0 0 11.02 -1.84 0 0 12.85 -1.83 0 0 7.35 -1.84 0 0 7.34 -1.84 0 0 14.7 -1.83 0 0 18.36 -1.84 0 0 11.02 -1.84 0 0 27.55 -1.83 0 0 23.88 -1.84 0 0 31.21 -1.84 0 0 154.27 1.84 0 0 12.85 1.84 0 0 22.04 1.83 0 0 25.72 1.84 0 0 16.52 1.84 0 0 11.02 1.83 0 0 18.37 1.84 0 0 1.84 1.84 0 0 27.54 1.83 0 0 11.02 1.84 0 0 7.35 1.84 0 0 9.18 1.83 0 0 11.02 1.84 0 0 3.67 1.84 0 0 5.51 1.83 0 0 7.35 1.84 0 0 7.34 1.84 0 0 5.51 1.83 0 0 9.19 1.84 0 0 3.67 1.83 0 0 7.35 1.84 0 0 3.67 1.84 0 0 5.51 1.83 0 0 5.51 1.84 0 0 3.67 1.84 0 0 3.67 1.83 0 0 5.51 1.84 0 0 1.84 1.84 0 0 3.67 1.83 0 0 5.51 1.84 0 0 3.67 1.84 0 0 5.51 1.83 0 0 1.84 1.84 0 0 1.84 1.84 0 0 1.83 1.83 0 0 3.68 1.84 0 0 1.83 1.84 0 0 1.84 1.83 0 0 1.84 1.84 0 0 1.83 1.84 0 0 1.84 1.83 0 0 1.84 1.84 0 0 1.83 3.67 0 0 1.84 5.51 0 0 1.84 7.35 0 0 1.83 16.52 0 0 -1.83 3.68 0 0 -1.84 7.34 0 0 -1.84 1.84 0 0 -1.83 1.84 0 0 -1.84 3.67 0 0 -1.84 1.84 0 0 -1.83 1.83 0 0 -1.84 1.84 0 0 -3.67 1.84 0 0 -1.84 1.83 0 0 -1.84 1.84 0 0 -3.67 1.84 0 0 -1.84 1.83 0 0 -1.83 1.84 0 0 -3.68 1.84 0 0 -3.67 1.83 0 0 -3.67 1.84 0 0 -3.67 1.83 0 0 -3.68 1.84 0 0 -5.51 1.84 0 0 -1.83 1.83 0 0 -5.51 1.84 0 0 -7.35 1.84 0 0 -5.51 1.83 0 0 -1.83 1.84 0 0 -3.68 1.84 0 0 -7.34 1.83 0 0 -12.86 1.84 0 0 -5.51 1.84 0 0 -11.02 1.83 0 0 -5.51 1.84 0 0 -3.67 1.84 0 0 -9.18 1.83 0 0 -14.7 1.84 0 0 -7.34 1.84 0 0 -12.86 1.83 0 0 -9.18 1.84 0 0 -11.02 1.84 0 0 -14.69 1.83 0 0 -9.18 1.84 0 0 -12.86 1.84 0 0 -20.2 1.83 0 0 -12.86 1.84 0 0 -27.55 1.84 0 0 -27.54 1.83 0 0 -137.74 -1.83 0 0 -25.71 -1.84 0 0 -14.69 -1.84 0 0 -23.88 -1.83 0 0 -12.85 -1.84 0 0 -20.2 -1.84 0 0 -9.19 -1.83 0 0 -14.69 -1.84 0 0 -14.69 -1.84 0 0 -5.51 -1.83 0 0 -16.53 -1.84 0 0 -11.02 -1.84 0 0 -3.67 -1.83 0 0 -9.18 -1.84 0 0 -12.86 -1.84 0 0 -7.35 -1.83 0 0 -9.18 -1.84 0 0 -12.85 -3.67 0 0 -5.51 -1.84 0 0 -9.18 -1.84 0 0 -5.51 -1.83 0 0 -11.02 -1.84 0 0 -5.51 -1.84 0 0 -1.84 -1.83 0 0 -9.18 -1.84 0 0 -5.51 -1.84 0 0 -5.51 -1.83 0 0 -5.51 -1.84 0 0 -5.51 -1.83 0 0 -5.51 -1.84 0 0 -5.51 -1.84 0 0 -3.67 -1.83 0 0 -3.68 -1.84 0 0 -3.67 -1.84 0 0 -5.51 -1.83 0 0 -3.67 -1.84 0 0 -5.51 -1.84 0 0 -3.68 -1.83 0 0 -7.34 -1.84 0 0 -1.83 -1.84 0 0 -3.68 -1.83 0 0 -3.67 -1.84 0 0 -7.35 -1.84 0 0 -3.67 -1.83 0 0 -3.67 -1.84 0 0 -3.68 -1.84 0 0 -3.67 -1.83 0 0 -3.67 -1.84 0 0 -3.68 -1.84 0 0 -1.83 -1.83 0 0 -3.68 -1.84 0 0 -1.83 -1.84 0 0 -3.68 -1.83 0 0 -1.83 -1.84 0 0 -3.68 -1.83 0 0 -3.67 -1.84 0 0 -1.83 -1.84 0 0 -3.68 -1.83 0 0 -1.83 -1.84 0 0 -3.68 -1.84 0 0 -1.83 -1.83 0 0 -1.84 -1.84 0 0 -3.67 -1.83 0 0 -1.84 -1.84 0 0 -1.84 -1.84 0 0 -3.67 -1.83 0 0 -1.84 -1.84 0 0 -1.83 -1.84 0 0 -1.84 -1.83 0 0 -3.67 -1.84 0 0 -1.84 -1.84 0 0 -1.84 -1.83 0 0 -1.83 -1.84 0 0 -1.84 -1.84 0 0 -3.67 -1.83 0 0 -1.84 -1.84 0 0 -1.84 -1.84 0 0 -1.83 -3.67 0 0 -1.84 -1.84 0 0 -1.83 -1.83 0 0 -1.84 -1.84 0 0 -1.84 -1.84 0 0 -1.83 -3.67 0 0 -1.84 -1.84 0 0 -1.83 -1.83 0 0 -1.84 -3.68 0 0 -1.84 -1.83 0 0 -1.83 -3.67 0 0 -1.84 -1.84 0 0 -1.84 -3.67 0 0 -1.83 -1.84 0 0 -1.84 -3.67 0 0 -1.84 -3.68 0 0 -1.83 -3.67 0 0 -1.84 -3.67 0 0 -1.84 -5.51 0 0 -1.83 -5.51 0 0 -1.84 -5.51 0 0 -1.84 -3.68 0 0 -1.83 -23.87 0 0 47.74z"/>
   <polygon class="fil0" points="1902.13,69.85 1892.95,69.85 1892.95,71.69 1885.6,71.69 1885.6,73.53 1880.09,73.53 1880.09,75.36 1878.26,75.36 1878.26,77.2 1872.75,77.2 1872.75,79.04 1867.24,79.04 1867.24,80.87 1863.56,80.87 1863.56,82.71 1861.73,82.71 1861.73,84.55 1858.06,84.55 1858.06,86.38 1854.38,86.38 1854.38,88.22 1852.55,88.22 1852.55,90.06 1848.88,90.06 1848.88,91.89 1847.04,91.89 1847.04,93.73 1845.2,93.73 1845.2,95.57 1841.53,95.57 1841.53,97.4 1839.69,97.4 1839.69,99.24 1837.86,99.24 1837.86,101.07 1834.18,101.07 1834.18,102.91 1832.35,102.91 1832.35,104.75 1830.51,104.75 1830.51,106.58 1828.67,106.58 1828.67,108.42 1826.84,108.42 1826.84,110.25 1825,110.25 1825,112.09 1823.16,112.09 1823.16,113.93 1821.33,113.93 1821.33,115.76 1819.49,115.76 1819.49,117.6 1817.65,117.6 1817.65,119.44 1815.82,119.44 1815.82,121.27 1813.98,121.27 1813.98,123.11 1812.14,123.11 1812.14,126.78 1810.31,126.78 1810.31,128.62 1808.47,128.62 1808.47,130.46 1806.63,130.46 1806.63,132.29 1804.8,132.29 1804.8,135.97 1802.96,135.97 1802.96,137.8 1801.12,137.8 1801.12,141.48 1799.29,141.48 1799.29,143.31 1797.45,143.31 1797.45,145.15 1795.62,145.15 1795.62,146.99 1793.78,146.99 1793.78,150.66 1791.94,150.66 1791.94,152.5 1790.11,152.5 1790.11,156.17 1788.27,156.17 1788.27,163.51 1790.11,163.51 1790.11,167.19 1791.94,167.19 1791.94,169.02 1793.78,169.02 1793.78,172.7 1795.62,172.7 1795.62,176.37 1797.45,176.37 1797.45,180.04 1799.29,180.04 1799.29,181.88 1801.12,181.88 1801.12,185.55 1802.96,185.55 1802.96,189.23 1804.8,189.23 1804.8,192.9 1806.63,192.9 1806.63,196.57 1808.47,196.57 1808.47,202.08 1810.31,202.08 1810.31,205.76 1812.14,205.76 1812.14,209.43 1815.82,209.43 1815.82,205.76 1819.49,205.76 1819.49,200.25 1821.33,200.25 1821.33,198.41 1823.16,198.41 1823.16,194.74 1825,194.74 1825,192.9 1826.84,192.9 1826.84,189.23 1828.67,189.23 1828.67,183.72 1830.51,183.72 1830.51,181.88 1832.35,181.88 1832.35,180.04 1834.18,180.04 1834.18,176.37 1836.02,176.37 1836.02,174.53 1837.86,174.53 1837.86,170.86 1839.69,170.86 1839.69,169.02 1841.53,169.02 1841.53,167.19 1843.37,167.19 1843.37,163.51 1845.2,163.51 1845.2,161.68 1847.04,161.68 1847.04,159.84 1848.88,159.84 1848.88,158.01 1850.71,158.01 1850.71,156.17 1852.55,156.17 1852.55,154.33 1854.38,154.33 1854.38,152.5 1856.22,152.5 1856.22,148.82 1858.06,148.82 1858.06,146.99 1861.73,146.99 1861.73,145.15 1863.56,145.15 1863.56,143.31 1865.4,143.31 1865.4,141.48 1867.24,141.48 1867.24,139.64 1869.07,139.64 1869.07,137.8 1870.91,137.8 1870.91,135.97 1872.75,135.97 1872.75,134.13 1876.42,134.13 1876.42,132.29 1878.26,132.29 1878.26,130.46 1881.93,130.46 1881.93,128.62 1883.77,128.62 1883.77,126.78 1889.28,126.78 1889.28,124.95 1892.95,124.95 1892.95,123.11 1898.46,123.11 1898.46,121.27 1900.3,121.27 1900.3,119.44 1905.81,119.44 1905.81,117.6 1913.15,117.6 1913.15,68.02 1902.13,68.02 "/>
  </g>
 </g>
</svg>
