<?xml version="1.0" encoding="UTF-8"?>
<svg xml:space="preserve" width="3300px" height="2550px" version="1.0" style="shape-rendering:geometricPrecision; text-rendering:geometricPrecision; image-rendering:optimizeQuality; fill-rule:evenodd; clip-rule:evenodd"
viewBox="0 0 3300 2550">
 <defs>
 <style>
    .fil2 {fill:black}
    .fil3 {fill:#080808}
    .fil1 {fill:#CCCCCC}
    .fil4 {fill:#373435;fill-rule:nonzero}
    .fil0 {fill:url(#id0)}
    </style>
  <linearGradient id="id0" gradientUnits="userSpaceOnUse" x1="405.15" y1="1224.77" x2="2853.51" y2="1224.77">
   <stop offset="0" style="stop-opacity:1; stop-color:#F2F0EA"/>
   <stop offset="0.141176" style="stop-opacity:1; stop-color:#F3DA7F"/>
   <stop offset="0.329412" style="stop-opacity:1; stop-color:#F5C413"/>
   <stop offset="0.658824" style="stop-opacity:1; stop-color:#F7920C"/>
   <stop offset="1" style="stop-opacity:1; stop-color:#FA4300"/>
  </linearGradient>
 </defs>
 <g id="Capa_x0020_1">
  <metadata id="CorelCorpID_0Corel-Layer"/>
  <g id="_1658940060944">
   <rect class="fil0" x="405.15" y="1180.75" width="2448.36" height="88.03"/>
   <g>
    <rect class="fil1" x="320.69" y="1123.33" width="62.4" height="203.54"/>
    <polygon class="fil1" points="202.89,1152.33 164.39,1152.78 163.49,1247.24 "/>
    <polygon class="fil1" points="225.73,1152.78 167.52,1294.25 192.6,1293.81 252.14,1152.78 "/>
    <polygon class="fil1" points="276.41,1151 215.94,1294.63 243.28,1294.03 303.43,1151.44 "/>
    <polygon class="fil1" points="302.62,1211.59 267.4,1294.71 302.62,1294.2 "/>
   </g>
   <g>
    <rect class="fil1" x="2878.24" y="1123.11" width="62.4" height="203.54"/>
    <polygon class="fil1" points="3058.44,1152.1 3096.94,1152.55 3097.84,1247.02 "/>
    <polygon class="fil1" points="3035.61,1152.55 3093.81,1294.03 3068.74,1293.58 3009.19,1152.55 "/>
    <polygon class="fil1" points="2984.92,1150.78 3045.4,1294.41 3018.06,1293.8 2957.91,1151.21 "/>
    <polygon class="fil1" points="2958.71,1211.36 2993.94,1294.48 2958.71,1293.98 "/>
   </g>
   <polygon class="fil2" points="2509.7,894.68 2077.66,894.93 2066.51,906.08 2066.51,1168.72 1961.82,1168.72 1961.82,818.13 2509.7,818.13 "/>
   <polygon class="fil2" points="3136.53,894.68 2704.49,894.93 2693.34,906.08 2693.34,1168.72 2588.65,1168.72 2588.65,818.13 3136.53,818.13 "/>
   <rect class="fil2" x="1962.25" y="1278.98" width="103.81" height="275.8"/>
   <rect class="fil2" x="2592.56" y="1278.98" width="103.81" height="275.8"/>
   <polygon class="fil3" points="1450.83,807.33 1524.29,807.33 1709.35,1171.36 1597.22,1171.36 1597.22,1160.96 1509.39,961.07 1499.81,952.05 1478.91,952.44 1468.87,961.79 1378.27,1162.8 1380.34,1170.51 1267.45,1170.51 "/>
   <polygon class="fil2" points="1790.73,1553.15 1648.94,1276.71 1760.27,1277.37 1900.11,1556.28 "/>
   <polygon class="fil2" points="654.64,1278.2 945.91,1554.43 1181.85,1554.43 1321.44,1277.87 1212.58,1277.87 1087.32,1531.91 1078.21,1538.68 1057.63,1538.68 793.7,1289.2 793.7,1278.2 "/>
   <rect class="fil2" x="408.55" y="1279.37" width="100.78" height="273.18"/>
   <path class="fil2" d="M767.16 895.78l-244.79 0 -11.22 9.12 -0.52 265.88 -103.39 0 0 -354.69 371.66 1.7c20.75,2 41.49,4 60.55,7.95 19.05,3.95 36.41,9.85 56.29,18.7 19.88,8.86 42.27,20.66 59.55,32.9 17.27,12.24 29.43,24.92 39.24,36.81 9.81,11.89 17.27,23 24.21,36.11 6.95,13.11 13.37,28.21 17.89,44.62 4.51,16.4 7.11,34.11 7.29,50.78 0.17,16.67 -2.08,32.29 -6.6,47.66 -4.51,15.36 -11.28,30.46 -18.23,43.16 -6.95,12.69 -14.07,22.98 -21.2,33.26l-128.12 0c14.23,-12.84 28.47,-25.69 39.45,-36.61 10.98,-10.91 18.71,-19.89 24.01,-33.37 5.29,-13.48 8.16,-31.44 9.33,-47.07 1.17,-15.63 0.65,-28.91 -1.69,-40.41 -2.35,-11.5 -6.51,-21.22 -9.9,-29.21 -3.39,-7.98 -5.99,-14.23 -17.45,-25.02 -11.46,-10.79 -31.77,-26.11 -51.74,-37.07 -19.97,-10.96 -39.58,-17.56 -55.29,-21.03 -15.72,-3.47 -27.52,-3.82 -39.33,-4.17z"/>
   <path class="fil2" d="M163.47 1739.45l0 -77.56 56 0 0 9.1 -45.71 0 0 23.83 42.79 0 0 9.1 -42.79 0 0 26.43 47.56 0 0 9.1 -57.85 0zm141.52 -24.91l9.64 -0.87c0.45,3.9 1.52,7.09 3.2,9.6 1.67,2.5 4.27,4.52 7.8,6.07 3.52,1.54 7.49,2.31 11.89,2.31 3.92,0 7.37,-0.58 10.37,-1.75 3,-1.17 5.22,-2.78 6.68,-4.82 1.46,-2.04 2.2,-4.26 2.2,-6.64 0,-2.42 -0.7,-4.54 -2.11,-6.36 -1.41,-1.81 -3.74,-3.32 -6.99,-4.57 -2.07,-0.79 -6.68,-2.06 -13.81,-3.77 -7.13,-1.72 -12.12,-3.32 -14.97,-4.84 -3.7,-1.95 -6.44,-4.37 -8.25,-7.24 -1.82,-2.87 -2.73,-6.1 -2.73,-9.66 0,-3.94 1.12,-7.6 3.34,-11 2.22,-3.41 5.46,-5.99 9.73,-7.76 4.27,-1.77 9.02,-2.65 14.23,-2.65 5.74,0 10.82,0.92 15.21,2.78 4.38,1.84 7.76,4.56 10.12,8.18 2.37,3.59 3.63,7.67 3.81,12.22l-9.85 0.76c-0.53,-4.9 -2.32,-8.6 -5.37,-11.09 -3.05,-2.51 -7.56,-3.75 -13.52,-3.75 -6.21,0 -10.74,1.13 -13.58,3.41 -2.83,2.27 -4.26,5.02 -4.26,8.23 0,2.78 1.01,5.08 3.02,6.88 1.98,1.79 7.13,3.65 15.47,5.53 8.34,1.89 14.07,3.53 17.17,4.94 4.5,2.08 7.84,4.7 9.99,7.89 2.14,3.18 3.21,6.85 3.21,11 0,4.13 -1.17,8 -3.54,11.64 -2.36,3.65 -5.74,6.49 -10.16,8.51 -4.43,2.02 -9.39,3.03 -14.94,3.03 -7,0 -12.87,-1.03 -17.6,-3.07 -4.75,-2.04 -8.45,-5.11 -11.14,-9.22 -2.71,-4.1 -4.12,-8.74 -4.26,-13.92zm148.45 24.91l0 -77.56 29.29 0c5.14,0 9.08,0.25 11.81,0.74 3.81,0.63 7,1.84 9.58,3.61 2.59,1.78 4.66,4.28 6.23,7.47 1.57,3.2 2.35,6.72 2.35,10.56 0,6.58 -2.09,12.16 -6.3,16.71 -4.19,4.56 -11.79,6.84 -22.77,6.84l-19.9 0 0 31.63 -10.29 0zm10.29 -40.73l20.05 0c6.64,0 11.33,-1.23 14.13,-3.7 2.78,-2.48 4.17,-5.94 4.17,-10.44 0,-3.23 -0.81,-6.01 -2.45,-8.32 -1.64,-2.31 -3.81,-3.85 -6.48,-4.59 -1.74,-0.45 -4.93,-0.68 -9.57,-0.68l-19.85 0 0 27.73zm135.03 40.73l0 -77.56 56 0 0 9.1 -45.71 0 0 23.83 42.79 0 0 9.1 -42.79 0 0 26.43 47.56 0 0 9.1 -57.85 0zm200.12 -27.21l10.3 2.6c-2.15,8.43 -6.02,14.84 -11.6,19.27 -5.58,4.42 -12.4,6.64 -20.47,6.64 -8.34,0 -15.13,-1.69 -20.37,-5.11 -5.23,-3.39 -9.2,-8.32 -11.93,-14.77 -2.73,-6.46 -4.1,-13.38 -4.1,-20.78 0,-8.07 1.53,-15.11 4.62,-21.12 3.09,-6.02 7.48,-10.58 13.16,-13.71 5.69,-3.12 11.96,-4.67 18.78,-4.67 7.77,0 14.28,1.96 19.56,5.92 5.29,3.95 8.97,9.49 11.05,16.64l-10.08 2.39c-1.79,-5.64 -4.4,-9.75 -7.82,-12.32 -3.41,-2.58 -7.71,-3.86 -12.89,-3.86 -5.94,0 -10.92,1.43 -14.91,4.28 -3.99,2.85 -6.81,6.7 -8.42,11.5 -1.62,4.82 -2.43,9.79 -2.43,14.9 0,6.59 0.95,12.35 2.87,17.26 1.91,4.93 4.89,8.59 8.94,11.03 4.04,2.44 8.41,3.65 13.12,3.65 5.74,0 10.58,-1.66 14.55,-4.97 3.98,-3.32 6.67,-8.23 8.07,-14.77zm97.56 27.21l0 -77.56 10.29 0 0 77.56 -10.29 0zm92.7 0l29.75 -77.56 11.29 0 31.58 77.56 -11.68 0 -8.98 -23.51 -32.66 0 -8.41 23.51 -10.89 0zm22.31 -31.85l26.44 0 -8.09 -21.5c-2.44,-6.54 -4.28,-11.94 -5.56,-16.2 -1.07,5.06 -2.49,10.02 -4.28,14.93l-8.51 22.77zm130.86 31.85l0 -77.56 10.29 0 0 68.46 38.13 0 0 9.1 -48.42 0zm135.25 0l0 -77.56 10.29 0 0 77.56 -10.29 0zm97.84 -24.91l9.65 -0.87c0.45,3.9 1.51,7.09 3.19,9.6 1.68,2.5 4.28,4.52 7.8,6.07 3.52,1.54 7.49,2.31 11.9,2.31 3.92,0 7.37,-0.58 10.36,-1.75 3,-1.17 5.22,-2.78 6.68,-4.82 1.47,-2.04 2.21,-4.26 2.21,-6.64 0,-2.42 -0.71,-4.54 -2.11,-6.36 -1.41,-1.81 -3.74,-3.32 -6.99,-4.57 -2.08,-0.79 -6.68,-2.06 -13.81,-3.77 -7.14,-1.72 -12.12,-3.32 -14.97,-4.84 -3.7,-1.95 -6.45,-4.37 -8.25,-7.24 -1.83,-2.87 -2.73,-6.1 -2.73,-9.66 0,-3.94 1.12,-7.6 3.34,-11 2.22,-3.41 5.45,-5.99 9.73,-7.76 4.26,-1.77 9.01,-2.65 14.23,-2.65 5.74,0 10.82,0.92 15.2,2.78 4.39,1.84 7.77,4.56 10.13,8.18 2.37,3.59 3.63,7.67 3.81,12.22l-9.86 0.76c-0.52,-4.9 -2.31,-8.6 -5.36,-11.09 -3.05,-2.51 -7.56,-3.75 -13.52,-3.75 -6.21,0 -10.75,1.13 -13.58,3.41 -2.84,2.27 -4.26,5.02 -4.26,8.23 0,2.78 1.01,5.08 3.01,6.88 1.99,1.79 7.14,3.65 15.48,5.53 8.34,1.89 14.06,3.53 17.17,4.94 4.49,2.08 7.83,4.7 9.98,7.89 2.15,3.18 3.22,6.85 3.22,11 0,4.13 -1.18,8 -3.54,11.64 -2.37,3.65 -5.74,6.49 -10.17,8.51 -4.42,2.02 -9.39,3.03 -14.93,3.03 -7.01,0 -12.87,-1.03 -17.6,-3.07 -4.75,-2.04 -8.45,-5.11 -11.14,-9.22 -2.71,-4.1 -4.12,-8.74 -4.27,-13.92zm168.18 24.91l0 -68.46 -25.57 0 0 -9.1 61.42 0 0 9.1 -25.56 0 0 68.46 -10.29 0zm102.75 0l29.76 -77.56 11.28 0 31.58 77.56 -11.68 0 -8.98 -23.51 -32.66 0 -8.41 23.51 -10.89 0zm22.32 -31.85l26.43 0 -8.09 -21.5c-2.44,-6.54 -4.28,-11.94 -5.56,-16.2 -1.07,5.06 -2.49,10.02 -4.28,14.93l-8.5 22.77zm127.92 6.94l9.64 -0.87c0.46,3.9 1.52,7.09 3.2,9.6 1.68,2.5 4.28,4.52 7.8,6.07 3.52,1.54 7.49,2.31 11.9,2.31 3.92,0 7.36,-0.58 10.36,-1.75 3,-1.17 5.22,-2.78 6.68,-4.82 1.47,-2.04 2.21,-4.26 2.21,-6.64 0,-2.42 -0.71,-4.54 -2.12,-6.36 -1.41,-1.81 -3.73,-3.32 -6.98,-4.57 -2.08,-0.79 -6.69,-2.06 -13.82,-3.77 -7.13,-1.72 -12.11,-3.32 -14.96,-4.84 -3.71,-1.95 -6.45,-4.37 -8.26,-7.24 -1.82,-2.87 -2.72,-6.1 -2.72,-9.66 0,-3.94 1.12,-7.6 3.34,-11 2.22,-3.41 5.45,-5.99 9.73,-7.76 4.26,-1.77 9.01,-2.65 14.23,-2.65 5.74,0 10.81,0.92 15.2,2.78 4.39,1.84 7.76,4.56 10.13,8.18 2.36,3.59 3.63,7.67 3.81,12.22l-9.86 0.76c-0.52,-4.9 -2.31,-8.6 -5.36,-11.09 -3.05,-2.51 -7.57,-3.75 -13.53,-3.75 -6.21,0 -10.74,1.13 -13.57,3.41 -2.84,2.27 -4.26,5.02 -4.26,8.23 0,2.78 1.01,5.08 3.01,6.88 1.99,1.79 7.13,3.65 15.47,5.53 8.35,1.89 14.07,3.53 17.18,4.94 4.49,2.08 7.83,4.7 9.98,7.89 2.15,3.18 3.21,6.85 3.21,11 0,4.13 -1.17,8 -3.53,11.64 -2.37,3.65 -5.75,6.49 -10.17,8.51 -4.42,2.02 -9.39,3.03 -14.93,3.03 -7.01,0 -12.88,-1.03 -17.61,-3.07 -4.74,-2.04 -8.45,-5.11 -11.14,-9.22 -2.7,-4.1 -4.11,-8.74 -4.26,-13.92z"/>
   <path class="fil2" d="M2060.05 1741.37l0 -68.46 -25.57 0 0 -9.1 61.43 0 0 9.1 -25.57 0 0 68.46 -10.29 0zm121.92 0l0 -77.56 56.01 0 0 9.1 -45.72 0 0 23.83 42.79 0 0 9.1 -42.79 0 0 26.43 47.56 0 0 9.1 -57.85 0zm147.5 0l0 -77.56 34.38 0c6.92,0 12.17,0.7 15.76,2.09 7.71,2.98 11.83,11.07 11.83,19.05 0,5.51 -1.79,10.15 -5.35,13.92 -3.55,3.77 -9.04,6.16 -16.48,7.19 2.73,1.3 4.78,2.6 6.19,3.86 3,2.74 5.84,6.19 8.49,10.33l13.42 21.12 -12.82 0 -10.26 -16.14c-2.98,-4.68 -5.45,-8.23 -7.39,-10.71 -2.75,-3.49 -5.46,-6.13 -9.89,-7.24 -1.15,-0.23 -3.05,-0.36 -5.71,-0.36l-11.88 0 0 34.45 -10.29 0zm10.29 -43.33l22.03 0c5.97,0 13.45,-0.53 16.97,-6.12 3.27,-5.08 2.68,-11.93 -1.91,-16.02 -2.65,-2.36 -6.84,-3.54 -12.57,-3.54l-24.52 0 0 25.68zm142.76 43.33l0 -77.56 15.38 0 18.35 54.9c1.69,5.11 2.92,8.94 3.7,11.49 0.88,-2.82 2.27,-6.97 4.15,-12.44l18.67 -53.95 13.74 0 0 77.56 -9.86 0 0 -64.89 -22.64 64.89 -9.24 0 -22.39 -66.08 0 66.08 -9.86 0zm167.44 0l0 -77.56 10.29 0 0 77.56 -10.29 0zm158.86 -27.21l10.29 2.6c-4.1,16.1 -15.16,25.91 -32.07,25.91 -15.04,0 -26.28,-5.64 -32.3,-19.88 -2.73,-6.46 -4.1,-13.38 -4.1,-20.78 0,-14.01 4.94,-27.77 17.79,-34.83 5.68,-3.12 11.95,-4.67 18.77,-4.67 15.17,0 26.35,7.89 30.61,22.57l-10.08 2.38c-3.29,-10.37 -9.52,-16.18 -20.71,-16.18 -5.94,0 -10.92,1.43 -14.91,4.28 -3.99,2.85 -6.81,6.7 -8.41,11.5 -1.63,4.82 -2.44,9.79 -2.44,14.9 0,10.29 2.28,22.55 11.81,28.29 4.04,2.44 8.41,3.65 13.12,3.65 12.59,0 20.07,-7.87 22.63,-19.74zm95.09 -10.54c0,-12.86 3.46,-22.93 10.38,-30.21 6.91,-7.27 15.83,-10.9 26.77,-10.9 7.17,0 13.62,1.71 19.38,5.12 12.5,7.43 17.67,21.05 17.67,35.09 0,14.04 -5.43,28.16 -18.25,35.17 -5.83,3.19 -12.12,4.78 -18.85,4.78 -14,0 -26.47,-6.96 -32.66,-19.71 -2.96,-6.09 -4.44,-12.53 -4.44,-19.34zm10.61 0.18c0,9.33 2.51,16.68 7.53,22.04 5.02,5.37 11.32,8.06 18.91,8.06 7.72,0 14.06,-2.71 19.06,-8.13 4.99,-5.41 7.48,-13.11 7.48,-23.07 0,-10.59 -3.13,-21.49 -12.55,-27.43 -4.12,-2.58 -8.72,-3.88 -13.83,-3.88 -7.26,0 -13.51,2.49 -18.74,7.47 -5.24,4.99 -7.86,13.29 -7.86,24.94zm148.68 12.66l9.64 -0.87c0.45,3.9 1.52,7.1 3.2,9.6 5.79,8.59 21.06,10.16 30.06,6.63 5,-1.96 8.88,-5.82 8.88,-11.46 0,-5.92 -3.98,-8.97 -9.1,-10.93 -2.07,-0.79 -6.68,-2.06 -13.81,-3.77 -7.13,-1.72 -12.11,-3.32 -14.97,-4.84 -6.71,-3.54 -10.97,-9.12 -10.97,-16.9 0,-3.94 1.11,-7.6 3.34,-11 5.05,-7.76 15.19,-10.41 23.96,-10.41 9.43,0 19.86,2.61 25.33,10.96 2.36,3.59 3.63,7.67 3.81,12.22l-9.86 0.76c-1.18,-11.05 -8.51,-14.84 -18.89,-14.84 -6.21,0 -10.74,1.13 -13.58,3.41 -2.83,2.27 -4.26,5.02 -4.26,8.23 0,2.78 1.01,5.08 3.02,6.88 1.98,1.79 7.13,3.65 15.47,5.53 8.34,1.89 14.07,3.54 17.17,4.94 8.09,3.74 13.2,9.68 13.2,18.89 0,9.06 -5.63,16.46 -13.7,20.15 -4.43,2.02 -9.39,3.03 -14.93,3.03 -11.03,0 -22.34,-2.49 -28.75,-12.29 -2.71,-4.1 -4.12,-8.74 -4.26,-13.92z"/>
   <rect class="fil2" x="2198.37" y="1643.47" width="30.34" height="6.38"/>
  </g>
 </g>
</svg>
